<svg width="2756.666" height="2575.959" xmlns="http://www.w3.org/2000/svg"><path d="M1288.826.045c-5.336-.453-11.26 2.494-16.736 8.322-6.242 6.644-33.758 15.052-76.09 23.252-44.62 8.643-82.077 13.088-124.666 14.795-47.85 1.918-61.235 6.03-82.553 25.367-5.07 4.6-12.57 9.933-16.666 11.854-7.09 3.325-8.442 3.487-28.115 3.344-15.431-.113-30.04-1.383-57.672-5.016-61.287-8.058-89.219-8.792-99.672-2.617-7.688 4.541-13.97 21.417-18.271 49.08-3.235 20.804-3.182 73.597.09 91.17 2.992 16.074 5.288 21.866 12.271 30.947 15.215 19.787 28.261 57.023 25.373 72.418-1.3 6.926-7.452 12.315-17.664 15.469-15.165 4.684-27.624 3.143-45.642-5.645-22.322-10.887-36.707-30.093-38.924-51.969-1.31-12.912-3.725-20.456-9.375-29.261-15.317-23.87-53.749-40.7-66.28-29.026-4.398 4.098-3.616 9.114 2.993 19.176 3.24 4.935 6.67 12.073 7.62 15.863 2.389 9.522 2.045 27.37-.788 40.893-1.72 8.21-2.21 15.055-1.776 24.836.538 12.133 1.094 14.548 5.49 23.807 11.4 24.004 35.828 38.034 75.534 43.38 7.06.951 26.09 1.357 50.668 1.082 36.537-.407 39.619-.26 43 2.034 3.79 2.57 6.338 9.106 6.351 16.29.026 13.967-11.794 28.756-30.847 38.596C772.659 455.624 764 462.748 764 466.98c0 4.411 6.612 11.48 22.54 24.106 14.826 11.753 22.051 19.992 21.237 24.219-.25 1.3-4.274 4.523-8.94 7.16-14.285 8.074-15.039 14.943-2.278 20.785 5.921 2.711 10.595 3.55 25.295 4.535 18.089 1.213 26.534 2.769 32.898 6.057 2.822 1.458 3.705 3.316 5.057 10.652.9 4.888 3.105 13.483 4.898 19.096 5.444 17.045 4.235 20.218-8.762 23.012-9.275 1.993-42.857.804-59.074-2.092-30.985-5.534-44.372-14.75-40.707-28.024 2.961-10.724-2.083-15.357-16.715-15.357-13.945 0-26.988 5.748-40.726 17.95-10.275 9.124-16.485 11.872-26.723 11.82-11.128-.058-20.146-3.531-35.46-13.659-16.447-10.875-32.375-24.49-66.597-56.924-41.545-39.374-84.183-79.209-120.609-112.681-39.754-36.531-53.914-51.253-63.86-66.399-8.598-13.095-12.673-22.544-15.574-36.107-4.662-21.803-.607-41.004 16.52-78.213 9.518-20.679 16.338-41.428 21.185-64.455 2.84-13.49 3.529-20.48 3.618-36.666.125-22.75-1.43-28.104-9.774-33.662C390.352 84.74 369.578 80.832 342 80.947c-40.537.17-63.909 9.366-71.633 28.182-6.025 14.678-2.073 29.332 7.912 29.332 1.825 0 5.403-.988 7.951-2.197 4.466-2.12 4.736-2.095 7.534.7 4.306 4.305 4.984 23.916 1.127 32.636-4.933 11.151-13.767 9.283-26.649-5.633-12.847-14.876-18.647-19.765-29.982-25.274-21.034-10.222-42.51-15.579-68.541-17.095-23.492-1.37-29.51 2.08-38.729 22.197-11.887 25.942-12.96 52.075-2.496 60.879 5.546 4.667 10.521 3.603 22.444-4.797 5.268-3.712 10.377-6.748 11.353-6.748 2.319 0 4.375 5.557 4.375 11.824 0 10.156 6.779 19.747 18 25.469 2.34 1.193 4.18 3.305 4.434 5.088 1.035 7.3-16.026 27.38-27.998 32.953-5.26 2.448-9.35 3.308-15.768 3.312-11.53.007-16.684-1.534-33.61-10.052-19.375-9.752-31.68-11.332-51.058-6.557-13.402 3.302-32.9 14.507-43.148 24.793C4.05 293.476 0 302.86 0 320.555c0 13.198 1.796 19.441 6.06 21.078 3.71 1.423 12.923.874 21.94-1.309 15.592-3.774 30.666-2.46 30.666 2.672 0 5.727 10.224 12.535 27.217 18.127 17.879 5.883 21.236 12.525 19.21 38.006-3.08 38.749-14.063 70.649-28.165 81.808-9.903 7.837-10.94 10.088-10.828 23.497.109 13.17 2.247 21.556 13.351 52.386 17.018 47.249 25.827 57.124 54.153 60.7 18.889 2.384 22.341-1.257 17.802-18.774-2.981-11.506-2.697-18.076.963-22.332 2.532-2.943 4.626-3.704 12.61-4.58 15.144-1.662 27.685-10.545 42.412-30.04 9.878-13.075 22.36-22.121 37.566-27.22 17.218-5.773 28.226-2.591 26.56 7.674-1.696 10.456-11.025 17.086-26.34 18.723-8.41.898-10.027 1.532-13.304 5.199-10.323 11.553-4.466 33.264 10.994 40.754 19.98 9.68 49.801 11.379 71.352 4.062 6.806-2.31 12.96-6.088 20.845-12.79 7.372-6.267 9.602-4.403 9.602 8.02 0 8.953-.235 9.677-4.607 14.186-5.062 5.221-10.893 7.37-20.059 7.393-7.418.018-15.904 2.254-19 5.006-5.697 5.064-.547 17.172 12.16 28.59 11.726 10.535 32.032 15.737 50.95 13.054 12.306-1.745 16.275-3.917 26-14.234 7.605-8.07 8.43-8.577 13.322-8.176 4.206.345 5.565 1.158 7.02 4.207 4.263 8.937-3.146 20.51-17.157 26.797-6.28 2.818-11.254 3.858-22.416 4.684-15.157 1.121-22.084 3.465-23.51 7.959-1.829 5.762 3.397 12.749 26.524 35.46 22.214 21.817 31.441 33.06 31.441 38.311 0 4.892 12.21 14.802 29.191 23.692 9.09 4.757 16.589 9.25 16.666 9.984.079.743-5.318 1.753-12.191 2.281-20.704 1.592-29.557 5.012-41.01 15.844-12.443 11.768-18.355 29.338-15.556 46.226 2.782 16.79 10.792 28.126 30.841 43.649 17.597 13.624 21.574 23.137 18.713 44.752-3.18 24.027.3 36.6 13.389 48.367 7.959 7.155 26.493 16.88 32.172 16.88 6.25 0 9.891-4.768 10.978-14.376 1.592-14.064 9.477-20.291 25.696-20.291 23.208 0 27.09 13.437 12.404 42.928-7.242 14.541-10.69 18.886-17.678 22.27-6.892 3.336-16.709 3.624-28.283.83-16.58-4.004-26-1.794-26 6.1 0 6.519 4.918 14.245 17.422 27.37 9.874 10.365 12.909 14.657 18.463 26.12 7.309 15.083 11.167 28.711 13.345 47.128 2.012 17.01 4.7 25.093 10.149 30.543 11.963 11.963 44.848 11.617 61.783-.65 11.178-8.097 10.888-15.25-.85-21.036-9.441-4.654-13.644-10.364-13.644-18.533 0-6.934 2.543-12.397 7.639-16.406 12.344-9.711 31.163-10.084 90.904-1.8l25.877 3.587-3.877 3.137c-13.792 11.164-50.747 38.263-58.53 42.92-9.022 5.399-11.045 6.152-25.347 9.427-13.85 3.173-32.101 16.683-59.426 43.989-29.62 29.6-47.235 51.98-72.92 92.654-25.536 40.438-36.623 53.5-51.57 60.76-12.088 5.87-22.598 7.026-54.23 5.959-29.942-1.01-37.232 0-47.686 6.597-25.415 16.044-37.176 62.468-39.727 156.813-.628 23.253-.409 33.26.846 38.666 4.26 18.348 15.763 33.883 24.469 33.04 3.677-.357 4.81-1.478 8.488-8.403 4.923-9.272 10.067-14.286 13.44-13.096 7.35 2.592 11.769 11.27 17.74 34.83 9.497 37.474 30.723 63.6 57.152 70.346 24.04 6.136 48.392-9.268 41.387-26.18-.922-2.225-5.191-6.751-9.486-10.057-4.296-3.305-7.811-6.509-7.811-7.12 0-1.775 3.722-2.733 10.621-2.733 10.244 0 24.725 8.074 40.467 22.562 19.828 18.25 39.678 26.752 58.053 24.87 23.943-2.453 25.905-12.008 6.85-33.348-5.495-6.153-9.323-11.634-9.323-13.346 0-3.394 4.606-7.904 14.18-13.879 15.169-9.468 20.486-26.503 20.486-65.63 0-20.78 2.11-47.69 4.732-60.364 2.655-12.827 9.058-25.703 14.4-28.96 9.215-5.62 20.259-1.688 34.13 12.146 20.014 19.96 23.351 39.761 8.414 49.912-2.73 1.854-5.63 3.371-6.446 3.371-.816 0-2.574 1.206-3.908 2.68-2.12 2.343-2.201 3.1-.636 6.023.984 1.84 3.782 4.863 6.218 6.72 15.185 11.583 32.653 9.322 49.29-6.376 13.78-13.005 19.876-23.723 29.808-52.432 8.043-23.249 11.94-31.039 19.508-38.982 5.322-5.586 5.754-5.77 12.666-5.375 9.776.558 9.959 3.174 1.05 15.146-8.877 11.932-11.008 17.017-10.187 24.305.708 6.277 4.303 11.105 10.961 14.713 6.287 3.407 25.654 2.95 37.219-.88 27.353-9.055 37.256-19.981 44.006-48.548 3.912-16.559 6.522-23.392 9.347-24.477 1.328-.509 4.683 1.99 9.727 7.239 8.529 8.877 13.39 10.928 25.701 10.847 13.46-.088 28.482-7.97 35.652-18.707 7.472-11.188 13.955-17.219 23.537-21.896 29.65-14.472 63.287-5.212 63.448 17.467.069 9.784 6.479 20.844 15.318 26.431 13.056 8.253 25.942 24.929 43.35 56.102 15.433 27.636 30.862 46.249 39.855 48.076 17.903 3.638 28.095 10.99 60.84 43.899 36.251 36.432 40.733 38.744 78.666 40.578 13.46.65 24.157 1.795 26.334 2.818 4.737 2.226 4.84 7.07.336 15.957-8.973 17.708-25.5 27.99-52.371 32.582-12.65 2.162-18.36 5.03-22.63 11.363-4.019 5.966-5.175 10.723-8.308 34.2-4.068 30.495-8.622 43.24-16.642 46.591-8.932 3.732-27.223 18.989-49.408 41.21-37.706 37.766-49.007 54.135-51.137 74.068-1.103 10.323-.51 20.798 3.172 55.992 2.793 26.694 2.236 43.699-1.682 51.332-3.206 6.246-6.099 9.015-17.133 16.393-14.217 9.505-14.49 15.69-1.91 43.71 23.575 52.512 25.96 86.167 7.762 109.53-9.187 11.793-10.365 14.06-10.375 19.9-.01 7.608 5.466 15.384 29.992 42.588 32.63 36.191 42.045 50.28 43.07 64.461.67 9.253-1.322 14.35-9.552 24.455-3.864 4.743-6.184 8.908-6.184 11.098 0 7.101 8.185 12.242 53.459 33.572 34.034 16.035 51.134 31.638 58.44 53.324 2.189 6.5 2.767 11.55 2.767 24.143v15.924l3.986 3.353c5.7 4.797 14.05 6.087 48.682 7.531 31.741 1.324 42.843 2.95 60.602 8.87 20.369 6.79 40.56 19.064 50.52 30.716 9.07 10.613 12.369 18.99 13.618 34.6.603 7.536 1.793 15.003 2.643 16.592 3.048 5.696 11.561 3.156 46.324-13.817 57.127-27.892 94.374-38.693 133.625-38.742 26.204-.033 33.96 3.212 40.943 17.133 5.16 10.286 9.258 14 15.446 14 4.672 0 6.165-.947 14.185-9 4.952-4.972 14.116-16.847 20.477-26.531 6.333-9.642 14.948-21.578 19.144-26.524 15.416-18.171 39.806-34.163 59.97-39.32 18.835-4.818 31.905-2.99 45.583 6.375 14.075 9.636 21.383 9.199 33.8-2.02 5.57-5.032 15.477-17.312 18.347-22.742.899-1.702 2.519-6.501 3.601-10.666 1.082-4.164 4.717-12.673 8.078-18.906 13.857-25.7 47.195-72.936 63.516-89.996 6.992-7.309 8.997-8.67 12.777-8.67 6.383 0 12.324 4.18 17.922 12.611 2.668 4.018 6.703 8.263 8.967 9.434 3.748 1.938 4.4 1.941 7.318.03 8.217-5.385 10.97-18.858 12.545-61.409 1.737-46.894 5.912-71.77 15.557-92.666 7.39-16.012 16.766-24 28.166-24 7.456 0 16.336-5.015 19.336-10.918 6.425-12.646 4.003-30.113-10.295-74.264-12.73-39.303-15.772-53.704-15.139-71.623.425-12.006.871-14.068 4.117-18.972 3.813-5.762 9.045-9.022 20.483-12.762 3.763-1.23 7.894-3.398 9.178-4.817 3.675-4.06 1.914-12.724-5.612-27.605a31682.5 31682.5 0 00-25.26-49.705c-21.887-42.995-27.683-58.547-26.912-72.209.562-9.944 2.323-12.838 10.035-16.498 4.397-2.086 4.65-2.543 3.915-7.096-2.103-13.02-19.236-39.877-59.666-93.531-33.468-44.414-41.254-56.341-42.188-64.629-.57-5.061-.186-6.303 2.816-9.086 1.913-1.773 8.499-5.163 14.635-7.535 12.726-4.92 18.215-9.244 18.215-14.346 0-8.69-12.54-18.032-56-41.722-34.6-18.86-58.268-34.543-68.926-45.672-16.027-16.736-12.803-23.164 12.672-25.262 16.629-1.37 24.47-3.843 27.672-8.73 1.316-2.01 2.744-7.905 3.336-13.778 1.94-19.236 8.29-26.303 35.303-39.29 15.118-7.27 19.506-10.107 27.783-17.97 6.742-6.404 11.242-12.105 14.328-18.148 7.924-15.515 22.17-29.767 39.203-39.217 17.506-9.712 22.502-16.74 21.166-29.775-1.594-15.558 6.153-30.557 25.969-50.28 18.12-18.033 19.97-18.127 63.908-3.212 29.265 9.933 44.384 12.886 66.254 12.94 26.81.064 50.937-5.15 78.799-17.032 53.96-23.013 109.024-64.249 198.533-148.672 46.6-43.952 77.567-69.595 109.334-90.537 19.09-12.585 31.017-18.486 50.973-25.215 19.217-6.48 28.03-7.172 32.345-2.541 3.873 4.156 7.823 17.916 9.58 33.37 2.633 23.151-2.106 73.023-11.75 123.673-7.85 41.23-7.43 62.767 1.721 88.416 8.475 23.751 18.804 37.306 34.201 44.887 11.458 5.64 20.33 6.69 24.944 2.95 3.097-2.51 3.313-3.476 3.232-14.472-.073-9.887-.875-14.136-4.992-26.43-10.33-30.847-9.527-53.932 2.752-79.115 8.195-16.807 20.308-27.448 28.342-24.898 4.77 1.514 6.972 6.836 8.156 19.713 1.95 21.217 10.684 34.323 23.11 34.675 9.36.266 15.864-6.607 21.374-22.59 10.517-30.503 14.306-82.742 14.543-200.47l.135-67.334-4.957-28.666c-6.266-36.236-7.54-48.494-8.961-86.195-1.199-31.79-1.993-36.27-7.906-44.625-5.47-7.73-15.105-13.898-42.528-27.233-41.046-19.96-57.001-32.908-66.796-54.21-11.102-24.145-18.192-26.91-74.852-29.194-86.688-3.494-133.262 3.272-178.2 25.887-29.37 14.78-73.067 23.433-99.253 19.654-43.538-6.283-50.944-28.063-59.191-174.084-1.119-19.8-2.65-43.5-3.403-52.666-8.78-106.866-28.296-136.464-109.285-165.742-39.682-14.345-54.241-16.863-103.334-17.858-46.49-.942-84.787 2.064-122.666 9.625-34.657 6.919-50.838 13.271-64.668 25.39-17.846 15.64-35.599 25.303-63.406 34.515-33.507 11.1-62.189 27.675-82 47.386-15.871 15.791-21.086 27.468-16.824 37.668 2.995 7.17 7.794 7.644 31.007 3.063 15.023-2.965 19.365-3.399 21.672-2.164 7.584 4.059 1.092 15.925-29.615 54.117-28.492 35.438-47.429 48.614-69.975 48.693-35.182.124-48.55 13.23-26.084 25.576 15.947 8.764 41.203 11.785 59.225 7.086 19.668-5.127 44.077-20.913 78.697-50.896 35.104-30.4 60.353-46.32 81.1-51.133 10.274-2.384 26.015-1.13 34.088 2.717 14.213 6.772 30.315 26.141 41.9 50.4 4.598 9.628 4.876 10.96 4.785 22.889-.111 14.654-2.352 24.105-16.691 70.406-24.174 78.056-31.558 120.004-32.787 186.262-1.007 54.279 3.092 93.834 14.34 138.387 12.2 48.327 26.064 80.564 56.705 131.865 9.062 15.172 18.403 31.495 20.76 36.273 3.977 8.066 4.147 8.947 2.36 12.295-15.048 28.215-175.075 166.137-197.685 170.38-7.073 1.326-19.24 9.923-34.445 24.337-18.33 17.375-25.636 21.129-41.127 21.129-8.572 0-12.632-.64-16.666-2.623-12.407-6.1-25.699-25.5-27.041-39.467l-.643-6.691 8.176-7.926c4.497-4.36 8.175-8.983 8.162-10.276-.044-7.99-12.218-24.536-39.992-54.351-36.071-38.723-55.996-67.88-55.996-81.94 0-6.786 3.017-8.838 14.385-9.785 4.61-.384 9.26-1.426 10.332-2.316 6.78-5.628-2.764-20.693-37.988-59.959-28.071-31.291-41.174-50.698-48.418-71.715-3.38-9.806-3.835-12.827-3.43-22.795.61-15.018 3.928-21.817 16.732-34.297 8.756-8.533 9.721-9.986 9.721-14.619 0-4.772-.992-6.11-13.758-18.525-14.611-14.211-23.864-26.723-32.578-44.059-9.724-19.346-17.664-45.94-17.664-59.164 0-11.037 9.077-16.62 30.53-18.777 8.75-.88 14.618-2.284 19.46-4.653 9.294-4.547 21.112-17.177 26.155-27.953 4.767-10.187 8.277-28.35 7.056-36.508-1.622-10.835-6.934-12.74-23.201-8.318-24.047 6.538-25.51 5.793-21.197-10.808 2.5-9.62 2.785-13.327 2.09-27.141-.443-8.8-2.269-24.7-4.057-35.334-4.855-28.862-5.1-31.402-3.58-37.049 2.028-7.53 4.698-9.214 18.084-11.396 21.726-3.542 34.041-10.216 45.312-24.553 11.685-14.863 19.58-40.844 19.75-65.002.147-20.715-4.969-29.489-15.632-26.813-1.777.446-6.094 4.262-9.594 8.479-10.68 12.866-16.95 19-19.422 19-5.563 0-8.797-11.059-13.643-46.666-7.288-53.553-7.93-80.025-2.193-90.234 1.843-3.279 5.44-6.776 9.268-9.012 12.088-7.06 17.403-19.782 18.42-44.088 1.365-32.654-7.653-50.294-23.528-46.02-8.1 2.181-10.914 5.235-12.176 13.217-2.087 13.207-7.093 14.394-16.513 3.916-11.604-12.906-25.785-48.539-27.051-67.97-.58-8.907-.243-11.09 2.67-17.333 1.833-3.928 9.124-13.743 16.203-21.81 13.789-15.712 18.147-22.987 19.039-31.787 1.395-13.761-14.303-22.172-41.494-22.233-11.326-.025-23.796-2.76-28.588-6.271-5.243-3.841-8.414-10.811-7.447-16.375 1.072-6.174 6.424-15.202 13.494-22.76 10.018-10.71 11.616-20.06 3.764-22.031-6.631-1.664-14.843.442-30.7 7.877-8.77 4.112-19.846 8.392-24.613 9.51-15.976 3.744-32.077 2.033-38.89-4.133-4.524-4.094-6.194-8.752-7.546-21.047-1.564-14.244-4.126-18.549-11.404-19.166zM956.57 275.795c24.367 0 34.75 3.163 44.002 13.404 9.658 10.69 15.883 31.99 13.227 45.262-1.824 9.113-5.805 8.85-21.799-1.447-27.342-17.603-36.379-19.863-84.666-21.174-31.087-.844-37.154-1.356-44.447-3.74-9.64-3.153-13.553-6.121-13.553-10.28 0-6.372 11.463-12.172 30.055-15.205 17.902-2.92 62.035-6.82 77.181-6.82zm-77.463 93.658c4.009 0 9.704 1.947 16.893 5.87 15.126 8.253 34.518 24.144 32.818 26.894-1.073 1.736-7.891 1.8-20.152.187-18.862-2.48-34.85-12.792-36.24-23.37-.837-6.368 1.528-9.582 6.681-9.58zm556.313 1363.852c.327.01.679.088 1.055.232 1.142.438 6.213 6.375 11.27 13.193 14.9 20.094 22.668 26.54 38.921 32.286 9.635 3.406 23.097 14.381 47.463 38.697 34.676 34.605 50.886 56.286 53.736 71.875.784 4.286 3.587 12.987 6.23 19.334 9.27 22.253 11.26 28.447 13.897 43.265 4.856 27.285 6.845 50.552 7.606 88.942 1.232 62.206-1.834 74.565-22.264 89.723-18.384 13.639-26.668 24.116-26.668 33.732 0 6.904-4.102 12.74-14.412 20.496-15.692 11.807-42.195 22.715-55.188 22.715-9.361 0-20.271 8.608-29.974 23.648-9.49 14.71-10.689 14.727-27.381.381-13.488-11.592-31.004-22.281-38.377-23.418-15.873-2.447-25.991-9.105-49.434-32.527-24.731-24.71-37.341-44.407-33.283-51.99 3.608-6.742 1.486-10.568-11.883-21.428-10.073-8.183-17.967-54.39-14.814-86.709 1.744-17.88 3.14-22.58 8.682-29.213 5.458-6.533 6.616-11.062 4.82-18.853-4.012-17.408.797-30.343 18.475-49.696 13.858-15.17 17.432-22.637 17.449-36.445.01-8.178.693-11.85 3.176-17.084 5.659-11.931 16.406-25.476 38.19-48.13 33.823-35.174 49.263-58.04 49.308-73.024.02-6.824 1.113-10.07 3.4-10.002z"/><path d="M1139.64 572.045c.903-.573 4.657-6.91 8.342-14.084 11.337-22.065 19.227-31.47 26.454-31.529 10.559-.086 24.18-11.817 31.479-27.11 6.359-13.325 8.04-23.322 6.713-39.941-2.423-30.382-1.268-40.771 4.295-38.637 3.958 1.52 9.878 13.18 15.086 29.718 5.712 18.141 8.115 22.666 12.036 22.666 4.018 0 6.254-4.834 10.504-22.714 7.779-32.722 9.772-45.989 9.19-61.167-.627-16.316-2.926-22.105-14.125-35.557-15.427-18.534-14.44-27.088 2.157-18.678 7.122 3.61 14.921 10.178 33.84 28.504 7.12 6.896 13.72 12.283 14.667 11.972.947-.31 1.896-2.019 2.108-3.796.652-5.458-8.701-61.174-12.404-73.89-3.88-13.323-11.99-31.534-17.047-38.277-9.366-12.489-12.666-25.239-9.597-37.08 4.813-18.574.567-28.936-18.084-44.137-10.964-8.937-11.305-8.585 9.413-9.696 20.865-1.118 43.232-9.258 59.424-21.626 17.305-13.217 39.399-26.523 52.243-31.464 3.117-1.199 6.063-3.21 6.546-4.468 1.699-4.428-1.39-6.548-10.937-7.506-12.272-1.232-20.395-4.432-21.399-8.433-2.348-9.355-11.54-9.422-32.01-.235-31.14 13.976-64.376 20.779-84.927 17.383l-5.06-.836 3.06-3.263c2.79-2.975 3.06-4.498 3.06-17.299V76.828l5.574-4.948c5.861-5.205 9.632-7.295 29.003-16.075C1275.552 48.413 1280 44.859 1280 39.224c0-7.258-2.72-8.361-12.404-5.028-34.44 11.854-134.914 27.934-193.361 30.946-38.312 1.975-47.377 3.644-59.467 10.95-4.664 2.818-8.777 6.737-11.583 11.036-12.59 19.295-16.5 22.634-28.252 24.12-7.436.94-19.215.103-59.6-4.234-25.14-2.7-43.77-2.01-54.263 2.01-11.295 4.327-25.07 20.387-25.07 29.23 0 3.403 4.789 6.874 9.482 6.874 4.181 0 8.597 3.442 9.822 7.656.688 2.367.141 3.32-2.626 4.582-2.84 1.294-5.335 1.134-13.308-.851-18.414-4.586-32.707-.849-45.436 11.88-21.814 21.815-19.438 52.682 6.013 78.112 17.16 17.145 35.293 24.208 62.053 24.17 18.338-.027 30.806-3.102 47.698-11.764 10.397-5.331 14.16-8.25 24.302-18.848 28.463-29.745 32.508-33.603 35.223-33.603 5.684 0 2.933 10.026-6.605 24.071-6.037 8.89-8.128 17.016-5.038 19.58 1.021.847 6.033 2.19 11.138 2.985 5.105.795 15.076 3.227 22.157 5.404 14.897 4.582 16.718 4.741 20.02 1.753 3.176-2.874 3.076-6.956-.436-17.862-3.547-11.014-2.829-13.832 3.207-12.573 10.097 2.105 25.765 13.562 43.125 31.536 24.57 25.44 29.326 47.099 18.524 84.372-4.212 14.535-8.52 25.787-14.749 38.524-14.522 29.693-29.62 35.13-117.233 42.213-18.333 1.482-38.133 3.334-44 4.115-28.675 3.818-56.245 11.427-67.333 18.584-9.528 6.15-23.938 24.63-23.984 30.758-.009 1.17 1.17 3.2 2.62 4.512 3.895 3.524 9.694 2.066 28.449-7.153 17.071-8.391 23.582-10.714 23.582-8.413 0 .749-4.998 7.62-11.106 15.27-11.837 14.824-15.853 22.583-15.897 30.71-.036 6.537 4.461 11.626 10.235 11.584 5.149-.037 8.847-3.029 12.9-10.434 4.357-7.963 12.237-12.492 20.782-11.946 5.551.354 6.366.77 6.03 3.076-1.814 12.44-1.794 13.78.263 17.757 1.194 2.309 4.023 5.156 6.285 6.326 8.655 4.475 15.67-2.462 21.781-21.537 5.578-17.412 4.967-17.176 19.318-7.48 19.383 13.097 23.46 11.379 24.895-10.495 1.4-21.344 8.054-32.179 24.34-39.635 13.63-6.24 34.578-4.05 56.047 5.858 12.799 5.907 19.931 11.864 24.81 20.72 3.53 6.406 3.931 8.336 3.845 18.486-.079 9.325-.984 14.051-5.106 26.667-2.756 8.433-5.318 18.933-5.692 23.333-.588 6.904-.268 8.522 2.335 11.808 2.568 3.242 3.696 3.697 7.59 3.065 6.756-1.096 16.318-7.795 26.582-18.622 7.319-7.72 9.715-11.365 12.264-18.65 2.777-7.938 3.05-10.406 2.22-19.995-1.866-21.548-1.712-24.226 1.415-24.673 3.321-.474 10.516 7.112 13.486 14.219 3.607 8.634 7.03 30 8.459 52.811 1.567 25.024 2.9 28.761 8.893 24.954z" fill="#ff0"/><path d="M1043.005 205.803c-19-3.445-36.74-14.93-40.849-26.447-1.784-5.002-4.79-28.14-5.108-39.323-.357-12.57 22.464-22.383 67.513-29.032 23.959-3.536 30.774-1.13 52.772 18.638 16.548 14.87 26.38 19.955 39.9 20.638 5.997.303 15.24-.417 22.765-1.773 10.91-1.965 13.41-2.034 18.002-.495 7.64 2.561 7.842 6.435.61 11.674-6.967 5.047-15.7 8.332-34.132 12.841-19.568 4.788-40.204 12.437-61.736 22.885-24.646 11.96-38.145 14.308-59.737 10.394z"/><path d="M804.14 143.228c9.553-6.492 27.885-34.082 27.84-41.902-.025-4.277-1.07-5.987-4.892-7.998-7.298-3.841-19.515-.164-26.317 7.92-10.429 12.393-14.834 36.294-7.957 43.17 2.863 2.864 5.817 2.554 11.325-1.19z" fill="#ffd42a"/><path d="M840.547 321.912c1.764-3.615 2.736-9.153 3.164-18.037.602-12.508.526-12.927-3.121-17.261-3.522-4.186-4.14-4.41-10.708-3.865-15.778 1.309-17.81 8.502-8.059 28.537 3.203 6.581 6.878 13.02 8.167 14.308 3.634 3.635 7.672 2.226 10.557-3.682z" fill="#fea"/><path d="M1031.922 393.835c11.202-5.792 22.915-32.345 16.916-38.345-1.168-1.168-3.287-1.82-4.707-1.449-3.796.993-21.96 20.18-25.276 26.7-3.197 6.287-3.485 8.72-1.475 12.475 1.696 3.17 9.009 3.48 14.542.62z" fill="#ff8080"/><path d="M972.667 393.297c6.75-3.089 24.273-20.138 25.429-24.743 2.048-8.159-4.718-14.758-23.963-23.375-34.127-15.28-73.038-15.308-168.986-.127-20.683 3.273-38.744 5.41-45.723 5.41-27.532 0-51.437-9.78-60.12-24.596-2.811-4.798-3.776-8.719-4.686-19.056-2.393-27.157-8.957-47.982-17.689-56.125-6.995-6.523-14.192-.174-16.743 14.769-2.31 13.53-3.229 44.627-1.734 58.709 2.991 28.174 10.344 34.902 54.13 49.532 42.263 14.12 53.265 13.781 105.418-3.249 35.927-11.731 52.012-15.113 68-14.297 20.61 1.051 33.787 6.98 56.658 25.494 10.285 8.325 19.839 14.093 23.342 14.093.733 0 3.733-1.097 6.667-2.44z" fill="red"/><path d="M861.678 425.033c3.415-4.216 2.596-11.583-2.862-25.744-5.808-15.07-9.487-18.316-15.051-13.281-4.052 3.666-8.122 19.727-7.495 29.572.733 11.505 3.618 14.07 14.912 13.253 6.329-.458 8.396-1.206 10.496-3.8z" fill="#fea"/><path d="M874.564 173.23c-2.167-2.166-3.897-5.334-3.897-7.133 0-5.576 2.751-11.635 5.284-11.635 6.604 0 16.156 13.778 13.537 19.527-2.164 4.748-9.806 4.36-14.924-.758z" fill="teal"/><path d="M1095.947 166.49c3.706-1.983 5.45-8.354 3.861-14.107-1.841-6.67-10.638-15.82-19.266-20.04-9.794-4.792-24.35-5.31-28.655-1.019-4.102 4.09-3.77 12.572.747 19.09 4.296 6.2 13.853 13.184 21.17 15.473 6.65 2.08 18.766 2.41 22.143.603z" fill="#f60"/><path d="M838.564 210.564c-5.467-5.467-5.387-11.945.205-16.65 4.903-4.126 10.306-4.422 14.89-.816 6.323 4.974 5.36 15.734-1.737 19.404-5.612 2.902-9.01 2.41-13.358-1.938zm-26.5 23.756c-8.67-8.669-10.2-17.365-3.358-19.082 4.749-1.192 12.038 2.582 13.963 7.23 2.504 6.044-.439 15.994-4.73 15.994-.954 0-3.598-1.864-5.875-4.142z" fill="teal"/><g fill="green"><path d="M2160.186 1249.682c58.641-11.117 117.643-50.448 217.814-145.198 59.236-56.029 88.137-80.452 122.215-103.276 54.442-36.463 91.826-43.567 115.711-21.988 11.704 10.574 14.074 20.524 13.95 58.575-.115 35.607-4.343 72.761-13.334 117.183-3.877 19.151-4.14 26.841-.96 28.061 3.646 1.4 7.638-3.915 17.462-23.244 11.059-21.758 16.228-35.713 20.83-56.233 14.423-64.305.782-126.89-31.188-143.09-37.88-19.196-114.41-4.512-183.979 35.3-29.23 16.727-58.184 41.175-75.823 64.023-21.93 28.407-41.053 48.246-67.288 69.806-57.445 47.209-124.386 78.194-168.933 78.194-17.218 0-42.566-7.603-52.102-15.627-3.829-3.222-3.99-3.648-1.727-4.537 4.133-1.624 17.758-1.245 30.5.849 49.816 8.185 100.426-9.194 156.067-53.59 16.715-13.336 31.164-26.985 65.932-62.278 40.797-41.412 68.005-64.757 100.991-86.649 58.819-39.037 115.045-56.13 165.364-50.271 27.757 3.231 40.987 8.825 55.61 23.513 20.728 20.82 31.593 50.294 33.404 90.615.966 21.505 2.675 32.7 6.267 41.05 2.398 5.573 3.747 6.903 9.648 9.513 8.15 3.604 13.113 9.442 20.19 23.749 5.4 10.914 8.627 13.467 12.336 9.759 2.718-2.72 2.519-22.056-.496-47.985-6.278-53.993-22.103-91.173-59.352-139.444-19.656-25.474-34.738-37.006-54.628-41.77-24.808-5.944-63.672-7.015-86.14-2.375-19.566 4.041-32.158 8.49-53.194 18.794-36.155 17.71-75.78 46.848-129.818 95.456-57.2 51.454-83.934 71.793-114.405 87.04-12.616 6.313-20.863 9.192-40.443 14.116-44.041 11.077-78.38 13.618-85.66 6.338-2.325-2.325-2.503-3.13-1.07-4.856 3.044-3.669 14.886-6.093 36.048-7.38 38.217-2.324 66.958-12.506 104.318-36.96 21.669-14.182 38.859-28.083 73.03-59.057 86.73-78.615 154.278-121.525 215.696-137.02 12.814-3.234 16.735-3.613 37.638-3.635 20.42-.022 24.505.344 32.724 2.93 17.83 5.61 47.362 26.812 78.33 56.237 29.863 28.375 38.555 34.808 47.027 34.808 12.495 0 16.426-21.789 7.23-40.074-5.618-11.173-24.498-30.076-40.424-40.475-44.274-28.908-111.16-48.263-158.053-45.736-26.514 1.43-60.426 11.224-92.834 26.814-28.992 13.946-42.23 22.986-74.141 50.634-62.262 53.943-160.097 115.145-211.731 132.45-13.404 4.493-14.782 4.696-26.89 3.965-13.422-.81-27.056-4.775-28.391-8.255-1.32-3.437 3.088-6.37 7.704-5.128 2.264.608 9.215 1.089 15.449 1.067 14.407-.051 28.034-4.332 53.728-16.88 40.155-19.61 74.467-41.873 138.272-89.716 67.623-50.705 118.765-84.925 142-95.015 12.416-5.392 28.363-10.308 42.834-13.204 14.93-2.988 59.924-3.383 75.166-.66 28.994 5.18 49.443 11.939 83.333 27.541 24.777 11.408 39.12 17 47.502 18.52 9.369 1.7 15.532-3.437 13.767-11.476-5.202-23.683-136.211-86.962-191.269-92.385-17.107-1.685-40.248 5.435-78 23.999-27.75 13.646-47.388 26.461-63.272 41.29-15.158 14.152-35.858 30.61-61.839 49.17-25.311 18.082-37.492 25.696-46.186 28.874-9.102 3.327-15.384 7.133-32.036 19.405-7.7 5.675-18.821 12.602-24.714 15.393-26.098 12.363-63.66 16.658-72.86 8.331-3.64-3.294-2.964-5.459 2.574-8.232 6.657-3.335 10.007-4.058 25.765-5.56 15.8-1.505 32.34-6.67 50.568-15.791 6.967-3.486 35.767-22.065 64-41.287 73.35-49.937 83.065-57.304 101.333-76.85 12.09-12.935 44.422-31.312 78.016-44.344 20.67-8.018 32.284-11.061 42.07-11.022 18.11.072 62.757 13.192 160.041 47.034 15.837 5.508 29.483 9.59 30.324 9.07 2.591-1.601 8.613-34.497 7.852-42.897-2.108-23.266-24.663-39.98-65.636-48.636-23.533-4.972-44.756-6.36-85.05-5.563-39.345.778-63.326 3.105-87.586 8.497-39.283 8.732-63.367 21.62-154.03 82.424-51.773 34.72-74.117 47.99-84.41 50.127-4 .83-16.606 6.25-28.013 12.045-26.085 13.251-28.012 13.43-38.458 3.55-7.048-6.666-7.244-7.028-4.254-7.868 1.724-.484 5.834-.943 9.134-1.02 8.823-.207 14.876-2.19 32.667-10.701 28.176-13.481 67.438-37.443 150.194-91.663 26.14-17.127 51.963-33.189 57.384-35.694 22.335-10.319 55.964-18.379 100.422-24.068 54.442-6.967 77.549-13.92 82.004-24.675 4.937-11.92-12.137-20.455-53.761-26.873-25.876-3.989-68.67-4.289-88.243-.618-21.972 4.121-38.96 9.779-58.667 19.54-21.153 10.476-36.396 20.966-56.666 38.996-29.85 26.551-53.402 43.199-80.667 57.016-21.941 11.12-40.491 17.276-54.667 18.143l-10.666.653 24-12.523c51.589-26.92 84.105-46.355 89.154-53.287 4.96-6.811-.833-12.548-17.73-17.558-9.998-2.964-26.65-2.742-39.544.527-29.306 7.43-68.115 33.65-102.089 68.974-30.873 32.1-42.791 56.295-61.91 125.685-12.7 46.092-24.744 80-28.417 80-4.463 0-5.314-12.749-2.102-31.492 4.288-25.02 17.423-74.644 25.524-96.43 22.251-59.84 68.003-118.308 113.93-145.592 10.922-6.49 15.206-12.077 17.446-22.756 1.394-6.647 1.057-10.394-3.284-36.447-4.59-27.554-5.942-31.852-9.577-30.458-.829.318-6.257 11.213-12.062 24.21-25.803 57.773-27.278 60.093-27.314 42.965-.035-17.055 6.3-44.266 17.091-73.414 11.248-30.383 14.122-49.82 14.083-95.252-.029-34.609-1.367-51.338-6.657-83.248-5.696-34.355-14.895-62.058-26.005-78.319-14.926-21.843-42.563-40.732-53.51-36.57-9.203 3.499-8.94 9.803 1.495 35.848 19.987 49.882 34.762 101.239 40.935 142.289 7.32 48.681-8.876 174.183-29.51 228.666-3.962 10.46-8.136 15.863-12.614 16.324-3.302.34-3.33.254-2.96-8.99.468-11.66 3.312-28.69 14.918-89.334 5.053-26.4 9.845-52.8 10.65-58.666 7.586-55.325 2.235-109.75-16.125-164-15.462-45.687-47.508-108.275-61.496-120.106-2.376-2.01-7.62-5.208-11.654-7.107-7.195-3.39-7.883-3.454-36.643-3.454-26.73 0-29.35.203-29.76 2.308-.287 1.477 8.19 11.917 23.555 29.006 42.91 47.727 64.508 80.464 70.184 106.383 1.24 5.667 5.947 25.603 10.459 44.303l8.203 34-.083 34.667c-.073 30.685-.499 37.422-3.708 58.666-4.529 29.978-12.047 67.65-20.756 104-11.174 46.638-14.237 76.804-10.256 100.986 1.176 7.142 2.129 16.742 2.118 21.333-.035 14.46-3.48 15.111-9.93 1.877-13.527-27.756-11.667-68.417 6.697-146.392 6.856-29.109 11.509-55.287 14.778-83.137 2.942-25.07 3.37-90.132.733-111.333-5.6-45.027-17.074-80.648-33.74-104.758-7.219-10.441-29.295-31.903-58.257-56.634-24.67-21.066-38.463-27.734-54.007-26.109-10.184 1.064-42.32 9.88-44.873 12.31-2.945 2.802-.308 4.582 16.619 11.213 27.579 10.804 40.742 18.67 54.849 32.777 16.646 16.646 33.744 42.83 52.588 80.534 23.21 46.436 30.07 74.58 28.886 118.486-.942 34.941-6.559 61.056-25.098 116.691-19.742 59.246-23.252 76.943-22.201 111.908.739 24.564 2.42 35.585 11.842 77.582 5.345 23.828 6.053 33.614 2.675 36.992-5.284 5.284-16.711-22.649-23.316-56.992-5.558-28.897-6.817-41.517-6.85-68.667l-.033-26 6.951-26c7.084-26.495 15.619-56.035 26.196-90.667 22.185-72.637 20.348-113.035-7.747-170.3-17.904-36.493-34.537-61.964-51.912-79.496-34.603-34.916-88.003-64.324-109.485-60.294-6.694 1.256-13.184 7.6-12.017 11.747 2.305 8.187 19.33 19.023 48.672 30.98 67.157 27.366 102.716 80.167 107.326 159.363 1.647 28.284-2.756 62.591-13.261 103.334-13.34 51.734-18.305 86.21-20.658 143.436-1.84 44.742.692 90.153 6.745 120.927 3.403 17.303 6.986 27.612 16.474 47.396 12.378 25.81 14.133 32.907 8.138 32.907-4.606 0-10.093-7.197-19.453-25.518-16.788-32.856-24.066-67.227-26.605-125.63-2.545-58.544 2.847-117.98 15.44-170.185 16.676-69.13 20.22-113.277 12.635-157.333-11.96-69.467-55.252-113.674-123.448-126.058-28.416-5.16-69.498-3.705-97.508 3.455-20.18 5.157-38.158 16.02-38.158 23.054 0 4.801 3.664 8.552 17.833 18.257 14.323 9.81 22.552 13.434 30.645 13.497 6.887.053 10.387-1.41 16.892-7.06 10.01-8.695 22.628-12.344 42.296-12.23 21.922.127 42.014 5.135 64.046 15.965 14.404 7.08 26.355 15.816 41.822 30.572 19.325 18.436 24.136 29.701 24.127 56.494 0 17.772-2.379 34.12-8.231 56.72-4.058 15.67-7.325 24.375-20.764 55.334-40.604 93.536-42.268 189.224-4.887 281.117 3.98 9.781 16.17 35.383 27.092 56.893 26.709 52.605 29.595 60.656 21.74 60.656-9.074 0-29.377-28.925-51.942-74-13.812-27.588-24.212-54.092-30.18-76.908-6.725-25.71-8.31-29.337-12.61-28.83-4.415.52-5.243 3.54-5.413 19.738-.368 35.112 19.148 106.699 43.072 158 8.714 18.686 39.6 70 42.132 70 1.122 0 12.47-9.75 25.217-21.666 36.192-33.832 48.29-42.368 66.756-47.1 14.96-3.832 32.52.576 37.581 9.433 7.842 13.724 6.702 66.546-2.303 106.667-4.74 21.114-8.743 32.429-22.845 64.556-10.215 23.27-12.215 28.866-10.806 30.23 2.29 2.216 54.186 23.622 64.396 26.562 21.45 6.177 49.784 7.74 70.186 3.872z"/><path d="M1845.625 808.128c5.644-6.462 6.686-25.5 1.696-31.013-3.337-3.687-8.738-3.022-10.937 1.347-2.3 4.567-2.165 21.68.215 27.376 2.157 5.164 5.725 6.07 9.026 2.29zm75.708-288.333c1.467-1.467 2.667-4.23 2.667-6.14 0-9.497-9.521-35.1-17.343-46.637-18.49-27.273-63.88-55.402-90-55.775-10.13-.145-19.01 3.504-20.215 8.307-1.754 6.989 3.548 10.455 24.834 16.235 29.097 7.901 41.757 17.904 62.38 49.29 14.845 22.592 22.725 32.255 28.71 35.206 5.503 2.713 5.784 2.698 8.967-.486zm-212.478-36.401c9.43-7.554 23.745-18.754 31.812-24.889 14.32-10.89 18-14.203 18-16.203 0-2.622-4.677-5.174-9.482-5.174-6.852 0-13.012 3.25-24.518 12.93-11.163 9.394-38 40.803-38 44.474 0 5.096 5.154 2.508 22.188-11.138z"/></g><g fill="#ff0"><path d="M718.679 688.301c9.345-3.739 10.83-11.842 3.666-20.002-8.061-9.181-20.438-12.18-31.69-7.677-9.346 3.74-10.831 11.843-3.666 20.003 8.06 9.18 20.437 12.179 31.69 7.676zm-133.207 70.875c4.447-1.807 13.285-6.389 19.64-10.182 30.62-18.278 35.29-26.855 32.262-59.256-1.943-20.785-.927-26.385 5.869-32.351 2.496-2.192 8.038-5.294 12.314-6.893 30.828-11.527 27.694-18.525-26.524-59.228-48.337-36.287-92.103-74.36-153.7-133.705-55.244-53.224-71.063-66.917-91.5-79.2-15.035-9.036-24.907-11.9-41.027-11.9-19.415 0-33.454 4.311-36.054 11.071-4.836 12.57-6.936 15.782-16.752 25.608-20.765 20.787-55.265 44.45-89.333 61.272-24.266 11.982-32.132 14.669-53.109 18.138-31.4 5.193-45.584 10.593-48.91 18.623-4.064 9.811 6.41 19.351 38.019 34.626 11.733 5.67 24.157 11.361 27.608 12.645 12.008 4.469 16.559-.104 12.441-12.499-1.996-6.01-2.011-7.022-.163-10.597 5.285-10.22 23.272-20.549 44.114-25.332 20.986-4.816 35.153-6.19 64-6.205 23.18-.012 29.33.396 35.73 2.373 4.25 1.314 8.098 3.35 8.55 4.526 1.25 3.26-3.466 6.051-8.617 5.098-9.988-1.847-19.464 7.854-23.546 24.107-4.597 18.301-12.24 27.981-25.026 31.7-12.328 3.586-15.269 8.404-7.039 11.533 14.698 5.588 45.598-4.047 85.073-26.526 26.506-15.095 34.634-16.716 43.526-8.682 2.93 2.647 4.996 5.347 4.592 6-.404.654-3.428 1.188-6.722 1.188-19.122 0-27.61 19.23-29.435 66.681-.692 17.977-.517 20.912 1.34 22.453 3.06 2.54 9.265-.862 34.927-19.147 24.012-17.11 35.026-23.32 41.356-23.32 3.453 0 4.497.645 5.13 3.171 1.782 7.098-3.144 24.114-18.576 64.162-5.01 13.004-7.745 22.1-7.818 26-.103 5.501.176 6.034 3.348 6.402 2.466.287 5.485-1.246 10.504-5.333 21.877-17.814 34.678-25.44 53.152-31.662 9.778-3.294 21.64-4.235 22.504-1.785.806 2.284-10.762 14.29-20.4 21.172-15.009 10.717-25.755 24.787-25.87 33.873-.062 4.835-5.724 16.083-10.22 20.3-2.13 1.999-8.056 6.504-13.169 10.012-6.517 4.471-9.432 7.348-9.754 9.625-1.17 8.255 12.643 9.23 27.83 1.963 9.349-4.472 14.83-8.316 37.963-26.624 12.986-10.278 26.915-17 36.441-17.588 13.441-.829 18.062 4.285 20.295 22.46.755 6.152 2.33 14.645 3.5 18.873 4.19 15.145 14.42 19.193 31.236 12.36zm-62.856 58.753c1.972-5.187-1.233-12.768-8.598-20.34-10.405-10.697-21.897-12.873-23.147-4.383-1.697 11.528 13.57 27.804 26.162 27.892 3.397.024 4.636-.68 5.583-3.17zm-40.726 26.39c5.73-2.199.283-12.379-11.854-22.157-8.195-6.602-14.693-8.347-16.224-4.357-4.276 11.143 16.648 30.9 28.079 26.514z"/><path d="M535.343 1151.784c1.76-1.946 2.75-6.226 3.62-15.666 2.639-28.61 5.578-33.912 21.528-38.839 18.549-5.729 25.262-6.073 121.509-6.237 80.114-.135 93.895-.453 106.667-2.46 38.09-5.985 56.017-18.14 70.711-47.945 4.025-8.163 10.559-23.99 14.52-35.173 7.998-22.575 14.374-35.039 22.052-43.111 4.785-5.03 5.543-5.355 11.585-4.97 6.042.385 6.435.63 6.006 3.745-.253 1.834-4.904 12.576-10.337 23.871-15.702 32.651-21.504 53.576-22.773 82.13-1.518 34.145 4.907 44.7 27.17 44.637 16.563-.047 26.338-5.929 26.338-15.85 0-6.587-3.38-11.469-11.385-16.446-4.716-2.93-6.554-4.92-6.554-7.088 0-8.403 24.022-29.014 47.333-40.611 9.695-4.823 18.974-8.063 34-11.87 24.17-6.126 36.635-10.436 51.334-17.751 36.443-18.138 60.344-43.033 80.941-84.31 13.662-27.377 27.235-45.84 32.277-43.905 9.059 3.477 2.895 23.572-13.454 43.86-8.44 10.473-15.213 23.753-18.7 36.667-3.695 13.683-3.309 46.333.73 61.732 8.228 31.366 24.415 55.572 43.695 65.342 20.096 10.183 50.158 5.656 39.637-5.97-1.213-1.34-2.97-2.438-3.905-2.438-.934 0-3.764-1.95-6.288-4.333-5.947-5.614-7.135-12.172-4.368-24.105 3.653-15.75 12.801-31.821 34.664-60.895 26.93-35.814 32.661-49.007 30.899-71.129-2.267-28.455-2.4-33.872-.902-36.672 3.18-5.94 10.74-1.876 18.028 9.689 5.375 8.528 8.951 17.679 13.853 35.445 6.534 23.681 11.124 32.026 20.578 37.417 4.943 2.82 7.683 3.282 21.96 3.705 13.719.408 17.783.037 25.577-2.33 10.698-3.25 20.008-9.768 21.84-15.293 2.927-8.824-7.133-18.067-19.738-18.136-12.132-.066-19.948-5.052-25.13-16.03-2.525-5.35-2.82-8.237-2.726-26.666.113-22.319.612-24.864 13.11-66.89 8.979-30.192 12.51-63.524 10.005-94.459-2.308-28.52-2.93-57.693-1.278-59.984 2.552-3.54 10.15 7.09 21.526 30.12 17.912 36.262 32.508 48.561 57.786 48.693 19.459.102 42.05-8.931 42.05-16.813 0-4.17-3.362-6.7-16.811-12.647-14.5-6.413-20.094-10.71-23.262-17.872-3.105-7.02-5.258-24.217-5.272-42.113-.029-38.308-7.363-70.506-23.998-105.368-19.43-40.723-38.886-93.393-39.154-106-.166-7.808-.081-8.01 3.541-8.427 2.764-.317 4.707.64 7.606 3.743 6.001 6.424 9.951 16.153 15.762 38.821 11.004 42.93 25.563 60.256 53.59 63.775 18.639 2.34 41.583-2.243 45.217-9.033 3.796-7.094.33-15.313-10-23.711-13.47-10.95-17.938-15.69-21.038-22.311-4.91-10.491-6.282-19.202-7.584-48.19-2.116-47.067-7.177-59.912-41.41-105.102-12.424-16.402-25.291-38.573-23.452-40.412 1.118-1.119 8.716 4.014 18.931 12.788 11.432 9.82 22.95 15.016 35 15.789 8.866.569 10.433.258 18.34-3.634 13.157-6.477 18.456-15.759 13.88-24.31-2.226-4.158-11.795-7.68-24.315-8.949-20.732-2.101-26.488-8.55-42.406-47.504-2.491-6.097-6.459-12.919-9.262-15.924-4.461-4.783-5.49-5.247-11.404-5.143-3.575.063-11 1.748-16.5 3.745s-15.1 5.491-21.333 7.764c-10.618 3.872-12.47 4.13-29.333 4.085-9.9-.026-23.816-.535-30.925-1.131l-12.925-1.085-4.075 4.075c-7.327 7.327-5.163 13.776 9.944 29.634 14.613 15.341 18.577 24.995 20.707 50.44 1.3 15.528 4.057 28.652 7.36 35.042 1.03 1.99 5.182 6.876 9.226 10.857 4.32 4.252 7.354 8.401 7.354 10.06 0 5.277-7.393 11.703-18.717 16.268-13.883 5.596-22.343 13.137-28.463 25.37-5.869 11.732-7.953 21.806-7.2 34.813.882 15.238 6.262 25.46 18.564 35.276 5.133 4.096 9.659 8.296 10.057 9.334 1.013 2.64-1.143 4.832-8.914 9.062-8.238 4.483-18.624 5.73-29.145 3.497-14.312-3.038-25.87 1.153-46.613 16.903-6.727 5.107-17.482 11.848-23.9 14.98a7938.629 7938.629 0 00-16.122 7.886c-5.192 2.556-13.108 10.864-14.94 15.682-2.529 6.652-1.561 12.03 2.829 15.725 2.256 1.898 5.517 3.452 7.247 3.452 8.666 0 13.547 5.03 11.256 11.603-1.86 5.335-8.077 8.612-17.758 9.36-10.651.824-22.988-2.115-40.065-9.543-16.78-7.3-27.448-10.094-42.04-11.01-22.06-1.383-48.753 5.817-66.504 17.938a18363.49 18363.49 0 01-16.238 11.075c-14.08 9.589-32.432 12.033-55.814 7.435-19.26-3.787-30.778-2.07-33.46 4.987-2.42 6.364 1.027 13.134 14.212 27.91 8.666 9.712 9.444 14.245 2.444 14.245-6.259 0-15.188-3.702-28.63-11.867-11.374-6.91-28.589-13.277-43.419-16.06-4.4-.824-17.6-2.064-29.333-2.754-24.16-1.421-38.699-3.676-55.976-8.683-23.395-6.78-44.691-19.965-44.691-27.672 0-4.801-3.663-8.964-7.888-8.964-4.93 0-15.005 8.871-18.667 16.436-10.807 22.324 7.13 44.458 58.555 72.255 19.166 10.36 33.406 19.838 39.955 26.596 4.008 4.135 4.406 5.152 3.279 8.376-1.1 3.143-2.122 3.73-7.127 4.09-5.563.4-6.181.063-12.845-6.984-3.85-4.071-8.668-8.037-10.706-8.811-5.072-1.929-13.403.018-29.481 6.887-11.193 4.782-14.689 5.646-25.042 6.187-27.191 1.422-46.769-8.254-54.763-27.064-2.961-6.967-4.248-8.635-6.66-8.635-3.704 0-4.61 2.237-4.61 11.377 0 25.225 10.698 41.424 36.114 54.682 23.026 12.013 25.07 17.64 6.881 18.941-5.08.364-17.882-.374-28.45-1.638-30.979-3.708-44.578-1.377-69.878 11.977-23.93 12.632-32.102 14.32-51.053 10.549-11.103-2.21-13.195 14.207-2.682 21.045 7.497 4.877 13.352 5.701 41.068 5.78 29.618.083 37.585 1.36 51.238 8.21 6.81 3.416 18.681 12.269 17.73 13.22-.282.282-7.03-.685-14.998-2.148-8.4-1.544-20.22-2.662-28.14-2.662-24.49 0-41.11 5.153-77.136 23.911-41.806 21.768-51.557 23.165-76.638 10.978-13.072-6.351-24.81-17.596-26.076-24.98-2.648-15.443-5.714-20.734-13.505-23.305-10.106-3.336-20.525 3.838-20.426 14.063.109 11.365 9.518 28.354 24.547 44.323 12.728 13.524 21.064 20.057 38.737 30.36 18.711 10.906 28.9 17.95 28.352 19.595-.258.774-4.643 2.903-9.744 4.731-12.452 4.462-22.27 11.188-27.203 18.635-4.018 6.066-4.586 8.523-4.088 17.69.276 5.087 3.233 9.333 6.5 9.333 1.14 0 4.196-2.071 6.794-4.602 5.808-5.66 13.47-7.812 39.222-11.015 26.57-3.305 118.543-3.342 135.36-.054 6.155 1.204 11.774 2.77 12.486 3.483 2.519 2.518-6.935 5.592-21.357 6.943-31.852 2.985-41.497 6.063-54.09 17.262-10.678 9.495-28.85 38.52-28.885 46.136-.007 1.551 1.23 4.401 2.75 6.333 3.344 4.251 9.783 4.634 23.9 1.424 11.398-2.593 17.806-2.17 18.448 1.217.703 3.707-10.86 14.053-22.445 20.081-5.5 2.862-12.53 6.999-15.622 9.192-11.605 8.232-24.375 28.874-29.002 46.88-4.044 15.735-1.796 38.515 4.248 43.053 2.956 2.22 3.547 2.126 6.386-1.01zm295.221 264.559c3.308-2.783 4.103-4.473 4.103-8.727 0-12.82-16.098-16.57-22.015-5.126-2.634 5.093-1.438 9.74 3.596 13.975 5.05 4.25 9.162 4.215 14.316-.122zm-477.428 49.119c.676-1.284 2.207-7.099 3.403-12.923 4.102-19.978 10.876-27.185 27.034-28.768 5.477-.536 10.565-1.58 11.306-2.322 3.134-3.134.415-7.68-7.943-13.283-11.414-7.65-26.946-12.437-42.936-13.23-14.393-.715-19.082.78-19.73 6.292-.311 2.651.686 4.07 4.667 6.636 8.605 5.548 12.251 14.901 14.6 37.456 1.095 10.506 2.62 19.86 3.39 20.788 1.977 2.383 4.765 2.093 6.209-.646z"/><path d="M532.623 1610.105c7.206-7.206 9.504-25.786 5.363-43.352-2.824-11.98-6.582-18.494-13.47-23.348l-6.022-4.245 3.086-2.292c9.034-6.708 10.8-8.58 13.934-14.763 1.878-3.706 3.972-10.692 4.653-15.524 1.514-10.735 6.521-21.723 17.594-38.61 14.51-22.13 35.444-45.411 39.51-43.94 1.227.443 6.963 8.519 28.244 39.764 13.392 19.662 25.926 44.027 27.274 53.02 1.474 9.829 7.81 11.527 14.258 3.824 3.729-4.454 9.172-15.529 11.228-22.844 3.087-10.985 3.715-43.989 1.222-64.278-3.5-28.48-2.582-55.658 1.974-58.474 2.212-1.367 4.83 3.264 9.233 16.334 6.864 20.377 18.079 32.034 42.192 43.858 19.525 9.574 27.104 18.089 27.104 30.452 0 7.618 2.773 18.214 5.474 20.915 5.66 5.66 15.147 1.583 19.056-8.189 3.972-9.926 5.509-36.065 3.707-63.066-2.424-36.344-6.6-60.64-14.018-81.552-4.916-13.86-5.584-18-2.905-18 4.205 0 14.722 12.785 22.055 26.81 9.821 18.786 21.445 30.917 31.66 33.044 12.471 2.597 26.288 10.742 41.301 24.348 10.317 9.349 14.399 10.836 17.895 6.518 3.08-3.803 3.053-7.411-.26-35.387-4.329-36.542-9.568-62.663-17.857-89.037-2.603-8.28-2.39-8.154 18.728 11.086 30.98 28.224 53.023 57.205 57.77 75.951 2.6 10.268 4.248 13.33 7.637 14.18 5.003 1.256 8.955-3.529 17.735-21.473 10.011-20.46 12.437-28.921 11.817-41.212-.421-8.33-1.367-11.311-7.462-23.517-10.391-20.809-14.664-41.667-13.286-64.862.733-12.344 4.506-24.449 7.62-24.449 3.428 0 6.822 12.098 8.146 29.032 2.3 29.43 8.636 43.24 23.077 50.306 6.45 3.155 8.652 3.556 17.09 3.113 11.06-.58 17.989-3.454 30.449-12.626 15.4-11.338 20.146-24.901 11.97-34.213-3.853-4.388-7.578-6.381-20.452-10.943-12.924-4.58-17.64-11.516-16.697-24.558 1.156-15.984 12.385-33.266 43.115-66.355 28.49-30.677 35.05-42.451 36.304-65.152.849-15.375-3.285-70-5.468-72.255-1.264-1.306-8.425 1-34.233 11.02a33531.46 33531.46 0 01-51.968 20.13c-24.516 9.46-58.354 25.893-63.811 30.991-7.444 6.954-4.472 13.883 6.735 15.702 2.497.405 9.83-.255 16.296-1.466 13.415-2.514 19.447-1.863 19.447 2.1 0 10.677-23.198 32.403-44.8 41.956-9.103 4.026-21.318 5.964-38.48 6.105-21.217.174-28.29-4.135-33.991-20.705-3.256-9.463-4.997-12.738-9.126-17.165-5.23-5.608-10.396-5.925-21.11-1.296-16.978 7.337-26.968 9.875-66.557 16.907-49.858 8.856-69.809 15.867-84.478 29.686-13.532 12.748-31.69 24.849-83.458 55.621-22.347 13.283-45.951 30.543-60.604 44.312-8.69 8.166-16.321 17.565-30.311 37.333-36.43 51.476-84.082 120.866-106.5 155.087-17.583 26.84-35.872 43.783-53.919 49.949-3.3 1.127-10.997 3.329-17.105 4.891-22.682 5.804-24.56 12.685-11.182 40.983 9.86 20.858 16.342 23.598 28.904 12.222 9.4-8.513 15.652-11.631 28.086-14.01 10.826-2.072 15.169-4.5 22.037-12.322 8.284-9.436 12.536-20.78 24.63-65.713 5.64-20.96 19.706-46.667 25.533-46.667 1.123 0 5.56 3.596 9.862 7.992 6.598 6.744 8.271 9.475 10.702 17.48 2.581 8.498 2.81 11.588 2.189 29.673-1.06 30.865-11.442 95.166-19.004 117.693-7.308 21.77-3.465 25.148 24.247 21.313 20.78-2.876 26.37-1.843 27.493 5.08 1.01 6.227 4.682 11.443 9.545 13.561 6.208 2.704 8.614 2.257 13.353-2.482z"/><path d="M430.636 1611.852c.98-1.832.94-6.334-.138-15.102-1.313-10.687-1.214-13.923.684-22.39 1.22-5.444 3.916-12.898 5.99-16.565a2316.92 2316.92 0 017.303-12.804c1.944-3.376 4.812-10.876 6.374-16.667 3.61-13.384 3.701-37.645.233-62.529-2.23-16.01-2.64-17.365-5.368-17.753-3.527-.502-3.393-.99-6.922 25.138-1.44 10.662-3.895 22.797-5.455 26.967-5.707 15.251-19.11 29.758-41.432 44.846-27.054 18.286-37.92 29.13-37.005 36.93.573 4.886 5.157 6.067 13.802 3.556 19.216-5.582 26.292-2.982 43.796 16.091 12.006 13.083 15.56 15.098 18.138 10.282zM973.12 593.05c8.156-1.75 16.737-8.762 18.959-15.493.882-2.674 1.676-11.114 1.763-18.755.157-13.818.18-13.914 4.356-17.643 4.024-3.596 5.75-4.098 20.692-6.025 16.457-2.122 28.403-20.52 25.008-38.512-1.543-8.178-4.807-13.485-13.012-21.16-7.86-7.351-12.995-10.125-20.696-11.181-16.845-2.309-29.058 10.637-31.348 33.229-1.351 13.335-3.907 19.136-11.524 26.156-6.77 6.24-16.224 11.129-34.864 18.027-21.195 7.844-23.026 11.17-13.365 24.293 10.652 14.47 24.647 24.342 38.305 27.02 8.276 1.621 8.367 1.622 15.726.044zM156.05 464.795c9.52-4.8 11.815-10.917 13.191-35.16 1.09-19.197 3.003-27.75 5.989-26.772 4.068 1.333 11.161 18.043 14.734 34.713.446 2.08 2.326 5.297 4.179 7.15 6.356 6.356 13.41 2.492 52.926-28.99 15.906-12.673 23.597-19.627 23.316-21.084-.273-1.421-7.793-5.188-21.735-10.888-30.78-12.584-58.657-29.689-103.573-63.551-34.247-25.819-47.711-31.372-55.137-22.74-4.09 4.754-10.085 23.692-10.31 32.568-.315 12.49 5.125 17.335 18.052 16.078 17.9-1.74 48.307 7.31 60.485 18.001 3.592 3.155 4.233 4.39 3.031 5.838-1.968 2.37-4.837 2.316-14.218-.273-14.242-3.93-18.745.573-20.493 20.497-1.41 16.063-3.32 28.293-6.71 42.946-4.973 21.504-3.658 28.435 6.223 32.797 6.76 2.984 23.113 2.369 30.05-1.13zm121.732-94.251c5.589-2.124 10.61-10.089 11.253-17.845.5-6.033-.09-8.182-4.674-17.039-7.84-15.145-18.896-29.09-39.674-50.04-33.479-33.753-38.857-35.446-60.589-19.071-18.15 13.677-26.765 25.418-26.765 36.48 0 7.477 5.332 14.211 13.091 16.536 7.213 2.16 24.622 1.956 37.125-.436 5.748-1.1 13.601-2 17.451-2 8.045 0 8.307.6 5.014 11.454-4.07 13.42-1.332 22.891 9.332 32.278 9.867 8.685 28.629 13.412 38.436 9.683zm57.781-28.666c8.776-9.642 12.383-23.104 15.205-56.75 2.226-26.544.096-39.821-6.736-41.99-1.465-.464-5.372-.439-8.681.057l-6.018.903.02-5.152c.01-2.833.884-8.816 1.94-13.296 5.151-21.84 4.975-32.19-.597-35.173-4.237-2.267-14.093-1.52-28.904 2.191-20.348 5.099-28.709 12.184-30.592 25.923-2.35 17.142 10.897 34.137 32.11 41.196 4.78 1.59 8.69 3.345 8.69 3.898 0 .553-3.45 1.985-7.667 3.181-11.146 3.162-16.09 6.708-19.22 13.781-2.05 4.635-2.49 7.544-1.82 12.016 3.021 20.143 18.58 47.006 31.196 53.86 7.798 4.236 14.293 2.804 21.074-4.645zm33.706-132.827c9.507-12.027 15.32-36.3 15.306-63.923-.007-13.442-.58-18.52-2.97-26.246-2.92-9.444-7.353-15.087-11.851-15.087-6.649 0-15.087 10.062-15.087 17.99 0 5.293-3.41 12.228-7.248 14.743-2.014 1.32-8.027 2.733-14.329 3.369-17.77 1.791-18.873 6.383-3.77 15.702 16.9 10.428 23.563 21.874 24.921 42.805 1.223 18.838 5.922 22.167 15.028 10.647zm-124.203 60.271c2.937-1.864 5.6-13.436 5.6-24.337 0-15.084-3.22-37.02-9.668-65.857-4.945-22.114-6.004-25.376-8.331-25.67-2.054-.26-6.19 4.46-18 20.536-17.862 24.314-19.87 27.673-19.944 33.37-.074 5.587 4.285 8.959 16.145 12.49 16.13 4.804 22.745 13.562 25.217 33.38 1.28 10.273 3.83 17.259 6.28 17.207.532-.01 1.748-.515 2.701-1.12zm1096.198-58.176c24.438-6.332 47.693-24.093 57.423-43.856 9.481-19.26 3.34-31.479-15.828-31.49-11.793-.007-22.44 3.007-39.526 11.189-15.403 7.376-46.836 27.731-56.261 36.432-6.638 6.128-8.26 11.03-5.195 15.707 2.296 3.504 12.548 9.299 21.456 12.128 7.4 2.35 28.676 2.289 37.931-.11zm-75.619-115.26c17.08-4.368 38.355-16.893 38.355-22.58 0-4.306-2.927-5.511-13.38-5.511-15.258 0-30.73 5.573-44.953 16.193-15.52 11.587-4.49 18.156 19.978 11.898z"/></g><path d="M388.95 1649.128c.938-1.864 1.686-8.199 1.697-14.376.028-15.654-4.036-24.546-12.021-26.3-8.66-1.901-19.293 8.755-19.293 19.337 0 16.133 23.658 33.18 29.617 21.34zm112.904 3.588c3.783-5.089 3.623-16.55-.358-25.539-3.621-8.176-6.274-11.233-11.766-13.557-12.732-5.39-19.916 11.112-12.414 28.518 6.112 14.182 18.036 19.322 24.538 10.578zm-204.126-92.75c9.425-14.241 11.912-25.424 7.241-32.56-1.834-2.802-3.423-3.611-7.087-3.611-6.492 0-9.418 1.864-12.544 7.991-1.917 3.757-2.671 7.862-2.671 14.536 0 18.88 7.25 25.448 15.061 13.644zm8.265-102.834c6.842-3.313 11.448-8.105 15.895-16.536 4.132-7.834 4.377-12.878.783-16.13-6.292-5.695-18.009.095-28.537 14.1-4.188 5.571-6.134 9.46-6.134 12.256 0 8.686 7.588 11.347 17.993 6.31zM45.042 304.448c14.768-3.482 24.291-10.238 24.291-17.233 0-3.786-6.32-13.45-10.13-15.49-1.75-.936-4.567-1.218-6.767-.677-6.436 1.583-25.77 23.881-25.77 29.72 0 5.964 4.699 6.904 18.376 3.68zm143.11-136.81c7.685-1.648 13.181-6.092 13.181-10.657 0-4.875-6.528-11.937-14.344-15.515-6.23-2.852-8.643-3.244-16.501-2.682-15.836 1.133-28.902 11.963-25.204 20.89 1.485 3.586 7.254 7.105 14.05 8.57 5.484 1.182 22.11.833 28.818-.606zM335.097 122.5c2.899-2.75 5.336-12.525 4.12-16.525-1.915-6.296-4.373-7.513-15.179-7.513-18.435 0-30.705 3.57-30.705 8.937 0 2.74 5.607 7.46 14.477 12.187 13.018 6.939 22.03 7.9 27.287 2.913zM117.724 582.128c3.464-4.7 8.45-16.545 9.718-23.087 1.858-9.578-5.7-21.913-13.426-21.913-4.485 0-9.678 6.834-10.78 14.186-1.225 8.168.059 25.993 2.16 29.978 3.461 6.568 7.883 6.868 12.328.836z" fill="olive"/><path d="M1704.722 1677.289c6.525-2.964 11.44-8.585 16.809-19.218 10.461-20.725 5.342-34.192-26.464-69.61-28.572-31.816-40.168-42-47.825-42-6.564 0-8.417 1.147-11.587 7.165-2.343 4.45-2.88 7.668-2.813 16.836.102 13.617 2.514 20.572 12.574 36.255 3.852 6.005 11.197 19.655 16.321 30.332 13.497 28.122 21.285 38.382 31.481 41.472 5.014 1.52 5.58 1.458 11.504-1.232zm-347.408 13.183c8.594-4.6 4.97-24.969-8.293-46.62-21.081-34.414-49.682-47.755-99.683-46.499-16.604.417-17.721.617-20.125 3.59-1.4 1.73-2.546 3.791-2.546 4.578 0 3.613 13.716 14.133 28.013 21.485 28.764 14.792 51.505 30.351 70.564 48.28 15.608 14.683 24.84 19.055 32.07 15.186zm489.866 29.15c7.426-3.383 7.119-12.14-.866-24.7-10.594-16.667-46.732-54.932-62.482-66.16-14.84-10.58-22.008-12.5-28.27-7.576-7.822 6.154-5.726 16.11 6.84 32.49 9.049 11.792 36.296 39.481 50.726 51.547 17.893 14.962 25.634 18.235 34.053 14.4zm-560.923 3.902c9.016-4.503 20.804-14.544 23.482-20.002 3.24-6.603 1.582-12.478-6.946-24.622-15.258-21.726-22.508-21.76-35.627-.163-10.561 17.385-13.856 31.988-9.235 40.924 4.326 8.366 16.096 9.97 28.326 3.863zm85.12 5.548c4.476-2.29 8.048-5.503 11.017-9.908 9.055-13.433 2.858-15.904-18.63-7.428-24.535 9.677-30.69 14.26-26.28 19.573 1.369 1.65 4.211 1.965 14.486 1.603 10.497-.37 13.968-1.057 19.407-3.84zm558.443 13.293c1.932-1.52 3.513-3.944 3.513-5.387 0-6.805-11.37-22.472-38.596-53.183-16.862-19.022-25.95-32.488-35.179-52.128-8.53-18.156-13.88-23.872-22.337-23.872-6.763 0-11.663 2.53-15.81 8.162-7.089 9.628-2.192 20.04 20.602 43.807 24.506 25.553 33.788 37.833 42.889 56.74 5.815 12.082 14.243 21.93 22.095 25.816 7.615 3.769 18.063 3.79 22.823.045zm-298.37 9.149c7.933-6.966 17.69-22.037 20.928-32.325 4.11-13.063 4.062-37.64-.106-54.43-5.45-21.952-16.681-45.058-31.231-64.251-26.412-34.842-42.774-20.469-54.358 47.753-6.688 39.39-.936 54.725 34.482 91.92 16.172 16.983 21.555 18.998 30.285 11.333zm-134.117 9.04c0-7.316-8.249-55.604-11.387-66.657-4.636-16.328-13.03-32.985-20.473-40.622-20.775-21.317-67.89-27.111-81.347-10.004-1.93 2.452-2.793 5.476-2.793 9.776 0 11.124 10.654 23.838 28.908 34.5 23.142 13.515 43.358 31.293 67.372 59.248 14.818 17.249 19.72 20.67 19.72 13.76zm294.269 3.295c5.363-3.27 8.727-9.652 8.634-16.378-.151-10.989-14.06-34.26-31.57-52.818-17.158-18.187-28.327-23.352-33.483-15.482-2.05 3.13-2.054 4.014-.053 12.124 2.85 11.55 11.353 30.736 20.423 46.086 15.627 26.445 24.909 33.26 36.049 26.468zm-412.269 20.801c14.19-3.791 27.334-13.827 27.334-20.87 0-7.214-10.87-11.985-27.304-11.985-16.946 0-29.912 5.534-33.59 14.336-3.275 7.84.298 15.405 8.894 18.833 4.792 1.91 16.915 1.756 24.666-.315zm-74.396 12.964c8.86-4.198 18.133-14.4 20.378-22.421 3.851-13.754-.645-33.61-8.823-38.968-9.135-5.986-27.57.306-41.722 14.241-9.185 9.043-13.437 17.503-13.437 26.735 0 20.415 21.933 30.683 43.604 20.413zm277.003 28.019c6.193-2.376 7.932-19.457 3.96-38.894-2.777-13.584-11.97-35.05-22.25-51.948-7.072-11.626-43.265-59.11-46.647-61.2-.616-.38-1.994.033-3.061.92-1.567 1.3-1.942 6.192-1.942 25.35 0 13.058.65 28.41 1.443 34.116 3.837 27.585 17.896 55.282 38.764 76.364 13.49 13.628 22.284 18.151 29.733 15.292zm-379.361-.78c7.67-3.707 28.491-24.8 34.754-35.21 4.517-7.505 4.666-8.187 4.638-21.135-.028-12.607-.358-14.2-5.718-27.586-10.283-25.678-20.458-37.794-31.742-37.794-10.146 0-17.56 10.058-22.785 30.91-1.816 7.244-2.29 15.454-2.335 40.424-.064 34.886 1.09 42.711 7.277 49.335 4.453 4.766 7.777 4.987 15.911 1.056zm510.487 9.069c12.11-6.3 18.56-24.518 19.872-56.127 1.18-28.408-2.318-47.88-10.943-60.913-6.222-9.402-28.258-21.148-36.02-19.2-4.698 1.18-6.299 5.266-7.462 19.052-1.5 17.763-3.3 22.58-11.35 30.384-3.79 3.673-7.818 8.533-8.952 10.802-8.11 16.213.337 44.183 19.07 63.135 4.795 4.852 11.419 10.153 14.719 11.78 6.864 3.384 15.768 3.843 21.066 1.087zm-386.907 11.421c8.258-5.982 20.948-18.218 23.578-22.736 2.375-4.079 2.365-4.164-.822-7.351-3.623-3.624-14.928-5.714-22.859-4.226-5.55 1.04-11.998 6.171-14.988 11.924-2.496 4.802-2.774 19.075-.456 23.406 2.19 4.092 9.12 3.639 15.547-1.017zm556.456 18.2c6.427-6.899 2.072-25.54-13.335-57.081-22.29-45.63-34.58-63.968-41.68-62.186-4.496 1.128-6.975 5.398-11.1 19.117-2.719 9.04-3.564 14.812-3.681 25.128-.148 13.027-.013 13.682 5.073 23.976 4.456 9.024 7.894 13.268 23.334 28.804 23.521 23.67 34.542 29.592 41.389 22.242zm-77.605 16.252c.2 0 1.551-1.95 3.005-4.333 5.975-9.801 2.455-28.29-10.218-53.667-20.488-41.025-30.308-44.174-39.961-12.817-4.91 15.951-4.245 26.798 2.468 40.248 10.332 20.701 28.578 35.09 40.251 31.743 2.252-.646 4.257-1.174 4.456-1.174zm-88.332 16.18c7.76-3.525 13.458-10.664 15.385-19.274 2.852-12.746-.398-19.664-12.063-25.672-6.753-3.478-26.93-4.246-35.63-1.357-9.658 3.208-17.703 12.424-17.703 20.281 0 18.222 31.315 34.516 50.011 26.022zM1094 1898.64c2.933-1.335 7.583-4.924 10.333-7.974 8.688-9.636 6.076-20.255-4.963-20.175-8.729.064-20.155 8.106-23.285 16.39-2.085 5.52-1.777 7.343 1.854 10.975 3.913 3.912 8.683 4.145 16.061.785zm141.333-1.533c14.537-6.985 34.744-28.237 41.949-44.117 7.257-15.996.223-27.406-17.787-28.852-30.211-2.425-54.858 18.368-56.557 47.713-.879 15.186 3.207 24.745 12.282 28.731 5.131 2.254 9.908 1.43 20.113-3.475zm400.127 9.218c2.26-2.495 2.589-5.444 2.983-26.755 1.046-56.632-8.945-100.225-22.512-98.218-7.988 1.181-10.576 13.198-10.58 49.11 0 42.454 5.617 66.034 18.074 75.833 4.57 3.595 8.796 3.605 12.035.03zm343.938 2.225c1.607-2.452 1.896-4.811 1.184-9.666-1.358-9.27-7.89-27.093-15.456-42.169-8.067-16.075-13.961-33.34-15.794-46.26-.777-5.48-2.633-11.784-4.23-14.37-3.362-5.437-11.521-9.544-19.102-9.614-6.846-.063-19.62-3.08-34.193-8.08-12.013-4.12-14.93-4.059-17.297.363-1.748 3.267 1.09 9.064 14.204 29.016 10.38 15.791 23.058 29.261 29.968 31.841 8.14 3.04 8.672 3.575 8.312 8.349-1.297 17.216-1.05 18.873 4.321 29.025 5.906 11.163 20.964 27.533 29.352 31.91 7.645 3.988 15.992 3.835 18.73-.344zm-691.789 15.182c12.833-6.507 27.644-19.532 29.124-25.613 1.868-7.676-6.553-14.92-17.268-14.854-8.615.053-17.761 4.617-27.994 13.97-9.006 8.23-14.14 16.458-14.388 23.06-.457 12.147 10.84 13.419 30.526 3.437zm-136.961 9.792c7.243-5.073 22.447-25.063 28.189-37.062 6.531-13.65 4.84-27.726-5.71-47.52-9.153-17.172-21.835-27.349-32.573-26.138-16.58 1.869-24.317 21.557-21.623 55.024 1.976 24.542 8.37 44.223 17.423 53.634 4.714 4.9 9.3 5.561 14.294 2.062zm-78.448 17.938c3.984-7.732 4.11-20.825.25-26.014-3.462-4.654-7.227-5.215-10.524-1.57-2.178 2.409-2.586 4.819-2.552 15.059.046 13.754 1.667 18.191 6.646 18.191 2.487 0 3.95-1.342 6.18-5.666zm671.184 23.845c13.13-6.114 21.761-20.336 23.991-39.535.924-7.957-1.168-22.421-4.05-27.994-1.867-3.61-7.012-6.65-11.252-6.65-3.716 0-17.48 7.604-22.484 12.42-5.944 5.721-12.112 18.646-13.864 29.05-2.166 12.863.209 22.356 7.494 29.96 6.67 6.96 10.113 7.43 20.165 2.75zm109.263 13.333c7.291-5.33 1.388-43.194-10.63-68.178-14.63-30.417-37.845-34.827-50.859-9.662-6.943 13.426 4.703 39.596 28.098 63.141 5.91 5.947 13.144 12.07 16.077 13.608 6.171 3.234 13.733 3.71 17.314 1.092zm-639.665 2.666c8.996-4.558 18.28-14.125 23.236-23.944 13.382-26.508-1.216-49.283-31.66-49.394-18.191-.067-30.144 7.766-34.743 22.767-2.937 9.582-2.587 24.896.775 33.883 3.163 8.454 11.742 17.885 18.048 19.842 6.286 1.95 17.016.56 24.344-3.154zm706.256 11.727c6.29-6.29-1.125-30.067-23.253-74.571-17.178-34.551-23.968-45.086-29.478-45.735-10.023-1.18-11.005 18.153-2.25 44.292 9.21 27.495 32.012 65.137 45.477 75.071 4.861 3.587 6.68 3.767 9.504.943zm-266.485 10.242c12.23-5.555 25.51-24.25 32.78-46.147 2.516-7.577 3.102-12.218 3.116-24.666.016-14.543-.189-15.71-3.982-22.63-4.297-7.836-11.055-13.37-16.33-13.37-5.188 0-12.07 3.919-14.882 8.475-4.546 7.366-14.68 50.914-17.48 75.108-2.68 23.17 2.16 29.87 16.778 23.23zm-397.848 18.265c7.836-8.388 17.095-30.655 17.095-41.109 0-7.387-3.146-11.97-8.216-11.97-8.472 0-25.102 15.904-28.488 27.243-2.501 8.378-2.477 12.946.1 19.116 4.863 11.635 12.47 14.255 19.51 6.72zm-128.038.787c8.908-4.529 20.612-23.075 22.01-34.878 1.502-12.68-7.684-31.27-22.124-44.777-10.49-9.813-16.245-11.133-22.72-5.21-6.122 5.6-8.599 17.27-7.427 34.99 2.061 31.19 7.424 47.172 17.256 51.426 4.275 1.85 6.942 1.532 13.005-1.55zm-53.992 1.175c3.053-7.306 2.07-31.049-1.445-34.933-1.38-1.526-3.596-2.774-4.923-2.774-4.36 0-5.768 5.173-5.805 21.333-.04 17.129 1.29 21.334 6.746 21.334 2.611 0 3.814-1.1 5.427-4.96zm902.123 28.96c1.878-3.76 2.332-8.214 2.333-22.932 0-41.26-10.642-89.85-21.74-99.22-5.468-4.617-16.6-9.819-21.051-9.835-1.903-.013-4.536 1.176-5.851 2.629-3.754 4.147-1.728 13.051 7.31 32.13 4.382 9.248 8.992 20.725 10.246 25.506 2.134 8.137 2.138 9.277.068 17.873-3.193 13.25-.64 29.34 7.082 44.637 7.311 14.484 16.922 18.582 21.603 9.212zm-145.908 21.292c5.967-3.637 9.197-11.5 10.9-26.53 1.65-14.579.797-23.013-3.498-34.577-11.327-30.494-44.137-55.254-59.703-45.055-14.71 9.639-14.218 48.776.975 77.433 12.298 23.198 37.376 37.235 51.327 28.73zm-77.834 3.708c7.091-7.11 7.309-17.956.84-41.978-1.924-7.145-5.826-9.615-9.684-6.129-5.788 5.23-13.079 24.216-13.079 34.058 0 16.156 12.092 23.904 21.923 14.049zm-561.19 7.533c7.639-5.027 14.42-14.041 21.993-29.233 11.59-23.254 10.41-31.617-6.752-47.807-9.418-8.884-14.99-11.365-21.729-9.674-5.017 1.26-14.924 9.557-23.322 19.535-16.786 19.94-19.18 30.135-10.645 45.34 12.83 22.86 27.156 30.593 40.455 21.84zm481.219-3.745c25.717-22.665 41.402-41.779 47.366-57.72 3.028-8.093 3.29-12.16 1.255-19.488-4.261-15.347-17.039-13.787-42.68 5.21-20.548 15.222-31.277 29.507-32.886 43.787-.773 6.854 3.42 40.799 5.329 43.134.769.94 1.894 1.54 2.5 1.333.606-.208 9.208-7.523 19.116-16.255zm-410.747 21.695c4.074-1.857 6.062-7.108 6.995-18.483.847-10.316-2.639-35.104-5.564-39.567-3.451-5.268-8.242-4.072-15.617 3.9-13.896 15.02-18.846 25.538-16.472 34.998 1.249 4.973 11.17 15.303 17.453 18.174 6.256 2.857 8.684 3.037 13.205.978zm641.642 18.958c9.632-5.873 15.239-26.977 15.438-58.108.179-27.884-3.494-41.27-14.288-52.07-10.767-10.774-25.561-14.603-33.788-8.745-2.116 1.507-5.22 5.907-6.898 9.778-9.649 22.262 4.042 89.466 21.569 105.874 6.974 6.529 11.325 7.321 17.967 3.271zm-241.513 38.673c23.056-6.143 36.118-15.255 43.571-30.396 5.004-10.165 5.576-18.078 1.98-27.4-5.44-14.096-14.795-12.783-55.551 7.8-32.096 16.209-51.813 29.709-54.777 37.504-2.399 6.31 3.993 12.757 15.443 15.575 6.852 1.687 38.967-.32 49.334-3.083zm-572.153 15.712c4.906-2.235 6.595-7.736 5.865-19.106-1.422-22.152-21.554-50.059-31.585-43.782-3.597 2.25-3.12 8.578 1.77 23.505 2.58 7.877 5.08 17.45 5.558 21.273 1.465 11.736 4.35 16.048 12.545 18.747 1.1.363 2.121.707 2.27.765.15.057 1.759-.573 3.577-1.402zm207.818 9.532c8.634-6.792 10.473-24.645 4.475-43.44-3.213-10.068-11.604-24.422-16.513-28.252-6.318-4.928-12.86.838-17.57 15.488-2.534 7.88-2.952 11.58-2.493 22.071.488 11.151 1.083 13.646 5.16 21.641 5.328 10.447 11.096 15.133 18.626 15.133 2.922 0 6.335-1.084 8.315-2.641zm459.516 1.928c15.57-3.67 28.62-11.631 43.535-26.559 16.928-16.942 23.416-28.335 24.297-42.67.781-12.71-1.977-16.798-16.23-24.058-9.983-5.084-11.049-5.333-22.817-5.333-12.128 0-12.571.115-25.177 6.5-7.057 3.574-14.414 8.374-16.348 10.666-16.25 19.256-21.585 64.204-9.257 77.98 5.256 5.872 9.188 6.494 21.997 3.474zm-606.378-.955c15.69-10.397 16.773-53.466 2.135-84.998-11.5-24.775-51.45-46.717-64.53-35.443-3.384 2.917-3.72 3.983-3.516 11.166.651 22.98 33.398 93.134 50.47 108.123 5.616 4.93 9.32 5.207 15.44 1.152zm56.138 18.947c16.905-4.694 33.175-39.046 33.555-70.848.168-14.008.108-14.302-3.716-18.303-5.332-5.579-11.357-7.287-22.666-6.429-23.804 1.807-32.477 12.377-34.772 42.38-1.487 19.448 2.75 40.571 9.709 48.388 2.224 2.5 8.942 6.05 11.615 6.14.734.024 3.557-.572 6.275-1.327zm728.258 2.388c1.06-1.65 2.519-9.027 3.242-16.394 1.649-16.789 6.885-30.918 16.829-45.403 19-27.679 20.95-32.736 15.547-40.325-3.546-4.98-17.87-12.282-25.859-13.182-10.694-1.206-12.67 4.988-7.487 23.463 4.643 16.545 1.756 21.558-16.658 28.93-13.403 5.366-16.813 8.692-16.813 16.4 0 11.8 20.986 49.511 27.552 49.511.946 0 2.587-1.35 3.647-3zm-326.533 19.601c9.544-2.629 20.614-9.721 25.046-16.047 4.002-5.712 5.871-14.052 4.433-19.782-1.982-7.896-16.86-9.726-33.542-4.126-11.836 3.973-56.062 26.686-57.068 29.308-1.103 2.876 1.443 4.183 15.798 8.11 21.438 5.866 31.255 6.415 45.333 2.537zm-239.998 8.185c3.82-3.82 3.216-7.346-3.164-18.47-4.88-8.507-25.176-34.014-30.894-38.825-4.951-4.167-6.766-4.335-9.861-.916-1.98 2.187-2.255 4.65-1.83 16.334.559 15.406 2.827 21.753 11.314 31.67 10.587 12.367 27.316 17.326 34.435 10.207zm473.726 15.788c4.369-3.06 9.436-13.965 12.98-27.934 6.933-27.333 11.78-87.627 7.627-94.883-6.773-11.834-20.303 2.33-29.574 30.958-6.776 20.926-8.472 33.366-7.718 56.618.727 22.432 2.136 29.3 7.006 34.17 3.71 3.71 5.611 3.92 9.68 1.071zm-120.12 4.149c19.055-5.832 29.95-24.774 22.518-39.146-2.917-5.642-6.982-8.089-15.83-9.529-4.056-.66-8.632-1.985-10.17-2.945-3.555-2.22-6.792-8.996-6.792-14.218 0-9.975-5.875-17.552-13.609-17.552-7.813 0-13.688 3.105-23.276 12.299-14.429 13.835-19.601 27.87-15.776 42.802 6.39 24.938 33.731 37.228 62.935 28.289zm-426.028 21.712c10.695-3.204 15.754-12.51 15.754-28.975 0-11.829-4.065-21.34-13.372-31.288-16.467-17.604-37.444-21.809-48.955-9.814-8.802 9.173-12.539 33.424-7.45 48.358 3.016 8.853 12.724 18.475 21.297 21.108 7.876 2.42 25.588 2.75 32.726.611zm288.07.069c11.74-3.787 13.39-10.904 4.16-17.926-5.818-4.425-36.702-18.043-54.045-23.83-6.156-2.053-13.237-3.414-17.769-3.414-6.55 0-8.044.509-11.432 3.897-4.71 4.711-5.232 11.898-1.326 18.303 5.932 9.727 27.947 20.443 50.309 24.487 7.915 1.43 23.382.652 30.103-1.517zm-374.316 8.465c8.715-4.753 12.12-11.092 10.063-18.733-1.837-6.823-13.012-23.893-20.326-31.047-16.905-16.537-47.72-28.412-62.352-24.028-11.732 3.515-13.837 11.353-6.491 24.173 5.513 9.621 31.218 35.211 43.337 43.142 16.84 11.021 24.811 12.468 35.769 6.493zm-68.589 8.885c1.175-2.195 1.015-4.099-.728-8.662-7.106-18.609-45.507-65.517-58.797-71.823-6.319-2.998-9.068-1.55-9.632 5.077-.82 9.616 16.318 36.519 37.829 59.385 16.12 17.136 27.593 23.003 31.328 16.023zm338.046 8.665c2.49-1.182 6.33-4.202 8.535-6.713 3.315-3.776 4.008-5.72 4.008-11.252 0-8.187-2.159-12.58-9.395-19.117-6.306-5.697-10.263-7.58-22.605-10.756-12.86-3.31-24.325-9.255-35.962-18.65-20.067-16.2-24.594-18.162-28.63-12.4-1.488 2.125-2.075 6.211-2.075 14.453 0 10.086.486 12.464 3.979 19.453 9.144 18.3 30.88 36.254 54.021 44.623 8.44 3.052 22.081 3.226 28.124.359zm195.209 24.027c16.025-7.618 24.109-17.51 24.203-29.613.08-10.48-5.068-17.897-18.203-26.218-12.366-7.834-20.335-10.476-33.495-11.104-11.096-.53-12.882-.258-20.37 3.103-12.237 5.491-19.659 15.4-24.811 33.122-3.864 13.293-.124 23.128 11.124 29.25 9.611 5.23 14.981 6.13 34.886 5.842 17.091-.248 18.437-.469 26.666-4.382zm-303.308 6.859c5.982-4.563 12.446-13.33 18.586-25.208 8.201-15.868 6.134-28.21-6.944-41.452-12.634-12.792-27.63-16.157-41.407-9.291-13.172 6.563-19.78 19.005-18.624 35.058 1.039 14.408 12.61 33.847 24.823 41.696 7.91 5.085 16.217 4.802 23.566-.803zm379.915 19.767c3.292-1.263 5.92-7.436 6.837-16.057 1.085-10.2 9.761-28.076 21.25-43.781 20.931-28.616 27.015-50.393 23.402-83.766-1.98-18.287-3.802-24.097-7.73-24.656-3.492-.497-7.146 4.73-10.549 15.088-6.092 18.547-18.7 37.436-39.151 58.656-22.161 22.993-26.844 31.347-26.92 48.02-.099 21.855 13.953 47.324 26.11 47.324 2.526 0 5.564-.372 6.751-.828zm-598.738.302c6.215-2.596 8.798-6.866 8.798-14.54 0-5.376-.66-7.132-3.897-10.37-3.196-3.195-5.02-3.897-10.128-3.897-7.98 0-13.38 3.708-15.447 10.603-2.047 6.833 1.412 14.368 8.139 17.728 5.639 2.817 6.825 2.862 12.535.476zm113.465 7.179c21.488-1.94 31.959-5.591 38.571-13.45 6.858-8.15 9.578-15.696 8.963-24.866-.272-4.058-8.792-13.236-15.443-16.637-28.843-14.747-85.053-6.062-107.028 16.538-12.674 13.033-11.833 21.931 2.75 29.094 11.582 5.689 26.762 8.585 54.853 10.467 1.467.099 9.267-.417 17.334-1.146zm290.345 6.654c14.04-1.609 21.214-4.272 25.624-9.514 5.413-6.432 6.767-13.168 5.013-24.928-3.252-21.807-8.87-31.598-22.132-38.575-6.178-3.25-8.225-3.605-20.85-3.614-12.982-.013-14.653.3-22.967 4.239-14.96 7.086-26.937 22.247-28.588 36.187-2.503 21.138 16.9 36.395 47.555 37.391 2.566.083 9.922-.45 16.345-1.186zm-102.099 2.608c15.813-5.974 24.104-32.232 13.363-42.322-2.173-2.042-6.033-3.29-13.294-4.3-5.627-.783-14.555-2.894-19.84-4.691-5.526-1.88-12.67-3.268-16.811-3.268-6.183 0-7.755.551-11.1 3.897-7.458 7.458-4.323 21.409 7.852 34.951 12.287 13.666 28.428 20.042 39.83 15.733zm354.421 14.614c3.354-3.586 12.893-16.892 21.197-29.569 27.165-41.47 45.7-63.989 70.582-85.758 6.507-5.693 7.698-7.405 7.328-10.532-.468-3.966-2.192-5.37-8.12-6.619-4.692-.988-10.911-9.458-13.895-18.924-2.777-8.809-5.767-11.93-9.509-9.928-2.622 1.404-3.009 2.604-7.654 23.725-3.753 17.066-11.784 24.166-30.596 27.049-13.717 2.102-24.32 7.785-33.775 18.103-17.312 18.893-25.794 45.353-22.73 70.907 1.584 13.214 7.575 26.26 12.873 28.034 5.297 1.774 7.51.77 14.299-6.488zm-560.065 28.918c5.506-2.301 7.398-5.561 7.398-12.75 0-4.675-.904-6.444-6.168-12.07-8.25-8.82-18.225-13.626-28.676-13.815-7.054-.128-8.38.264-10.736 3.168-2.007 2.474-2.518 4.578-2.017 8.31 2.607 19.437 24.032 33.911 40.199 27.157zm154.202 6.213c10.634-5.277 15.042-11.174 15.042-20.124 0-12.827-9.803-25.5-23.765-30.724-26.716-9.996-76.761-8.368-87.002 2.83-8.195 8.96-9.213 20.894-2.53 29.656 10.116 13.263 43.419 23.656 73.589 22.964 15.072-.345 16.7-.65 24.666-4.602zm224.139 1.38c20.793-11.27 73.057-63.962 73.057-73.653 0-.763-1.2-2.587-2.667-4.053-2.115-2.116-4.444-2.667-11.266-2.667-8.888 0-29.551 3.52-47.952 8.169-29.162 7.368-38.123 19.805-38.11 52.897 0 10.587.49 13.729 2.675 17.313 4.763 7.813 12.375 8.439 24.264 1.994zm-132.979 24.362c30.96-7.994 60.584-21.067 69.702-30.757 6.156-6.542 5.903-11.565-.91-18.046-9.229-8.779-27.79-13.265-54.884-13.265-29.707 0-47.826 5.5-61.87 18.782-17.797 16.832-20.515 39.459-5.66 47.125 7.282 3.758 30.698 2.082 53.622-3.838zm152.836 20.8c3.293-2.088 10.76-8.257 16.594-13.707 16.353-15.28 32.738-24.296 56.47-31.076 15.58-4.45 26.674-9.963 31.43-15.616 3.032-3.603 3.533-5.226 2.951-9.562-.896-6.682-6.756-14.048-14.323-18.004-11.94-6.244-30.128-1.745-49.857 12.334-16.814 11.998-45.83 45.441-54.622 62.956-3.967 7.903-4.297 11.429-1.348 14.378 3 3 5.9 2.612 12.705-1.703zm-257.887 15.71c12.317-4.667 17.839-20.515 11.453-32.867-5.178-10.017-22.555-16.541-57.963-21.762-34.89-5.145-63.942-5.077-69.18.16-3.815 3.816-3.156 6.44 3.13 12.464 9.16 8.776 32.27 19.096 78.259 34.945 25.753 8.875 28.187 9.376 34.3 7.06zm71.523 20.606c12.557-4.27 38.698-9.234 62.23-11.816 47.936-5.259 69.334-13.466 69.334-26.592 0-7.057-3.23-12.31-9.694-15.763-5.025-2.685-7.528-3.013-22.973-3.013-19.94 0-31.417 2.078-56.53 10.233-31.873 10.352-56.808 22.292-67.384 32.266-3.677 3.468-4.753 5.531-4.753 9.118 0 10.633 9.598 12.428 29.77 5.567zm78.281-859.518c18.626-9.392 22.909-42.003 9.108-69.347-7.12-14.108-30.01-35.653-37.88-35.653-4.015 0-6.828 3.69-7.929 10.4-1.196 7.298-6.537 11.066-22.994 16.226-29.976 9.397-41.796 21.656-34.493 35.774 2.651 5.126 16.267 17.77 25.485 23.667 18.314 11.715 44.476 21.684 57.37 21.86 3.065.04 7.947-1.219 11.333-2.927zm-329.559-36.39c8.458-7.117 6.072-24.839-7.005-52.035-16.482-34.276-30.79-47.513-55.487-51.337-31.767-4.918-45.545 6.49-34.482 28.551 7.022 14.002 30.3 40.468 50.508 57.422 23.334 19.577 37.55 24.9 46.466 17.4zm641.245-44.108c.462-3.234-3.146-6.348-21.784-18.802-6.625-4.427-16.525-11.62-22-15.982-40.941-32.628-94.62-93.21-94.62-106.79 0-4.262-6.413-10.36-12.771-12.142-15.123-4.24-32.605-3.327-36.017 1.88-2.948 4.499-.61 8.283 13.59 22.001 29.917 28.901 47.997 49.242 51.05 57.433 5.496 14.744 9.609 19.773 27.461 33.582 22.398 17.325 45.761 29.604 71.415 37.536 17.242 5.33 23.054 5.646 23.677 1.284zm-563.92-1.46c12.79-7.908 18.297-24.57 14.414-43.615-7.265-35.622-35.902-62.418-70.102-65.597-16.791-1.56-31.997 4.792-37.556 15.689-3.975 7.79-3.206 22.613 1.732 33.399 11.908 26.01 42.76 55.832 65.41 63.226 8.259 2.696 18.738 1.451 26.102-3.102zm492.286 26.394c7.747-7.747 3.885-19.353-10.842-32.585-13.787-12.388-28.67-20.793-46.63-26.334-12.42-3.832-28.565-4.177-33.836-.723-6.217 4.073-4.734 8.035 7.539 20.138 27.916 27.53 53.962 43.184 72.102 43.336 6.854.057 8.229-.394 11.667-3.832zm-361.476 14.192c1.81-.917 4.205-3.29 5.32-5.277 1.822-3.248 1.804-4.45-.18-11.98-3.687-13.998-13.085-36.81-17.615-42.756-2.352-3.088-6.948-7.115-10.214-8.948-5.487-3.08-7.254-3.333-23.271-3.333-20.034 0-29.126 2.148-38.245 9.038-23.932 18.082-6.163 52.718 32.245 62.851 9.567 2.524 47.192 2.817 51.96.405zm381.086-146.115c11.865-6.122 11.99-16.268.28-22.824-5.25-2.94-7.564-3.35-18.66-3.32-18.157.053-26.666 4.826-26.666 14.96 0 4.72 5.319 10.143 12.706 12.958 7.817 2.978 24.952 2.038 32.34-1.774zm-636.725 25.542c13.329-7.784 15.031-26.27 4.395-47.721-9.764-19.69-19.018-28.364-42.716-40.038-17.963-8.85-35.724-13.845-52.943-14.89-14.464-.88-18.615.554-21.231 7.33-2.102 5.443-1.647 17.609.88 23.568 11.027 25.996 53.334 62.454 84.627 72.926 8.943 2.993 20.732 2.48 26.988-1.175zm393.948 10.037c10.42-3.858 19.351-12.665 25.693-25.335 10.24-20.459 7.565-23.674-21.335-25.652-11.47-.786-29.539-5.685-43.244-11.727-11.718-5.165-20.012-6.136-26.425-3.093-6.34 3.009-9.5 10.59-8.238 19.766 1.263 9.185 10.529 26.991 17.86 34.323 14.53 14.53 35.928 19.033 55.689 11.717zm139.134 12.206c13.05-6.658 11.512-18.115-4.572-34.029-14.882-14.724-42.004-32.605-57.592-37.968-25.036-8.614-30.67 5.277-13.051 32.182 11.506 17.572 31.377 36 44.786 41.533 7.44 3.071 22.734 2.208 30.429-1.718zm-333.674 9.507c7.183-3.665 18.527-16.264 22.63-25.135 7.009-15.156 4.034-33.53-7.862-48.55-5.68-7.172-20.494-17.37-32.479-22.36-14.047-5.847-33.373-8.902-45.395-7.174-22.051 3.17-28.313 11.923-20.109 28.113 11.284 22.267 45.783 64.192 60.747 73.82 7.12 4.582 15.11 5.04 22.468 1.286zm-273.365-.138c4.387-8.318-3.54-29.507-17.672-47.242-8.973-11.26-41.028-42.091-43.762-42.091-1.088 0-2.294.823-2.68 1.83-.696 1.812 33.834 65.998 41.495 77.132 6.827 9.923 12.359 14.545 16.873 14.099 2.652-.263 4.577-1.512 5.746-3.728zm376.724 39.784c21.531-11.458 31.147-40.182 21.51-64.255-8.805-21.992-24.571-30.118-49.787-25.658-14.065 2.487-22.031 7.14-26.474 15.462-2.739 5.132-3.135 7.448-2.735 16 .542 11.589 4.607 21.705 13.199 32.84 5.716 7.41 21.238 21.009 28.274 24.771 4.988 2.668 11.896 3.03 16.013.84zm142.245-.992c9.97-4.938 18.667-24.382 18.667-41.73 0-15.296-6.82-25.062-17.502-25.062-6.851 0-11.607 2.546-21.165 11.333-9.046 8.317-12.087 10.038-24.473 13.852-7.66 2.359-12.548 2.815-30.17 2.815-16.786 0-21.355.392-22.641 1.942-.887 1.067-1.24 2.544-.784 3.28 1.099 1.78 41.988 23.124 55.574 29.012 19.312 8.369 32.044 9.735 42.494 4.558zm-14.442-132.871c7.496-2.645 14.14-9.183 15.874-15.618 4.005-14.874-14.084-39.515-36.418-49.608-11.94-5.396-56.846-13.479-83.014-14.941-15.213-.85-22.523.615-28.606 5.733-3.282 2.762-4.06 4.442-4.06 8.763 0 7.534 3.007 13.018 12.26 22.358 14.38 14.514 43.151 31.762 65.29 39.14 8.928 2.976 14.026 4.167 29.116 6.803 5.929 1.036 23.633-.54 29.558-2.63zm-350.838 15.009c15.624-8.263 15.841-30.687.532-55.032-16.165-25.707-50.114-52.493-69.401-54.759-12.933-1.519-24.26 5.494-29.845 18.477-7.697 17.893-.01 35.955 26.57 62.408 22.316 22.211 39.544 31.886 56.881 31.944 7.344.024 10.754-.654 15.263-3.038zm210.515.357c10.824-5.78 17.432-11.915 17.432-16.183 0-5.46-7.365-15.402-14.968-20.205-12.81-8.092-35.578-15.424-61.032-19.655-14.054-2.336-34.282-2.354-39.779-.036-5.693 2.401-7.558 6.962-4.928 12.048 5.711 11.044 45.523 39.167 67.335 47.566 3.005 1.157 8.801 1.673 16.039 1.427 9.953-.339 12.377-.943 19.901-4.961zm-160.815-181.308c19.002-5.869 34.632-23.302 40.258-44.903 3.676-14.113 1.622-26.995-5.979-37.487-11.076-15.29-46.534-25-87.803-24.043-22.173.514-26.916 2.105-31.32 10.5-3.383 6.45-2.382 21.902 2.144 33.108 13.217 32.723 47.523 64.249 71.14 65.376 1.573.075 6.775-1.073 11.56-2.55zm563.855 3.951c5.14-5.402 9.668-12.122 13.7-20.333 7.903-16.093 10.497-26.692 9.74-39.785-.73-12.606-3.205-17.145-9.347-17.145-3.41 0-5.684 1.496-11.65 7.666-13.584 14.05-22.554 30.41-25.546 46.597-1.658 8.969-.794 15.97 2.854 23.12 5.328 10.444 10.225 10.415 20.249-.12zm105.29 5.781c18.892-15.429 26.959-24.711 25.77-29.655-2.481-10.326-16.722-8.366-27.729 3.818-7.247 8.021-12.62 22.645-10.025 27.283 1.822 3.255 6.99 2.631 11.984-1.446zm-393.831 10.022c5.731-5.731-2.808-17.236-19.269-25.958-12.93-6.85-20.277-8.954-25.001-7.158-7.635 2.903-3.08 11.332 11.896 22.019 15.286 10.907 28.153 15.318 32.374 11.097zm331.619 14.805c6.982-3.674 16.225-12.629 19.424-18.818 1.406-2.721 2.557-7.406 2.557-10.411 0-4.6-.898-6.414-5.675-11.47-6.912-7.316-13.785-8.908-20.432-4.733-6.775 4.255-9.14 10.902-9.665 27.171-.446 13.805-.349 14.39 2.928 17.667 4.095 4.095 4.198 4.1 10.863.594zm-719.931 14.68c10.313-1.887 19.85-6.706 26.993-13.64 10.842-10.523 14.195-19.408 12.003-31.812-1.474-8.346-13.175-33.467-20.782-44.619-15.721-23.046-41.167-39.25-54.578-34.756-6.067 2.032-9.381 6.513-10.9 14.736-1.772 9.586-11.477 22.816-32.64 44.494-12.386 12.688-18.25 19.62-17.733 20.965.883 2.3 34.349 27.585 43.899 33.168 12.098 7.071 29.126 12.276 41.738 12.757 2.249.085 7.649-.496 12-1.293zm608.355-1.865c3.91-2.143 8.514-5.565 10.23-7.604 4.416-5.249 8.836-17.698 9.615-27.082.565-6.815.233-8.543-2.243-11.667-7.006-8.84-23.072-1.82-39.389 17.212-24.254 28.29-24.01 34.397 1.344 33.506 11.73-.412 14.188-.937 20.443-4.365zm-245.88 28.704c15.602-3.619 17.923-15.282 6.598-33.153-5.737-9.053-31.08-34.605-43.02-43.375-31.474-23.119-80.683-41.588-115.02-43.169-14.035-.647-16.118-.438-21.461 2.148-14.263 6.905-11.639 20.444 7.656 39.492 19.414 19.166 48.205 38.36 84.017 56.009 38.891 19.167 64.123 26.015 81.23 22.048zm375.145-1.301c23.14-11.388 33.625-18.263 33.625-22.047 0-5.172-6.264-6.709-27.333-6.709-17.245 0-19.175.254-25.332 3.333-10.995 5.5-15.277 15.467-11.275 26.247 3.523 9.49 9.698 9.323 30.315-.824zm-69.612 12.591c9.603-5.627 20.582-25.161 20.565-36.589 0-4.294-4.192-11.285-8.411-14.05-1.766-1.157-6.445-2.773-10.397-3.59-14.784-3.059-32.145 4.298-38.27 16.215-4.538 8.828-3.738 21.653 1.846 29.598 8.229 11.708 22.95 15.282 34.667 8.416zm-139.767 7.348c5.18-4.826 5.659-22.91 1.014-38.339-3.903-12.97-9.343-12.397-21.232 2.234-12.358 15.208-14.63 23.679-8.103 30.206 7.92 7.92 22.82 11.023 28.321 5.899zm-596.274 12.132c17.646-8.015 18.594-29.147 2.214-49.34-5.252-6.475-32.362-30.116-37.603-32.792-3.009-1.537-5.49-.829-25.492 7.272-25.692 10.405-32.605 14.015-36.23 18.917-3.87 5.235-2.244 9.072 8.756 20.66 26.313 27.72 68.19 44.443 88.355 35.283zm316.113 1.671c8.991-4.267 13.105-13.915 9.827-23.049-4.707-13.117-23.876-35.423-49.174-57.221-41.156-35.462-48.955-37.017-78.85-15.723-5.92 4.217-11.073 9.082-12.577 11.876-2.273 4.22-2.364 5.357-.834 10.509 1.37 4.613 4.88 8.89 17.427 21.23 29.103 28.626 56.637 46.116 82.68 52.521 10.51 2.585 25.899 2.515 31.5-.143zm375.07 20.887c3.698-1.98 5.886-8.656 4.886-14.909-3.154-19.725-21.404-36.552-46.738-43.091-18.504-4.777-31.386.168-31.386 12.048 0 7.224 5.033 12.884 14.138 15.9 10.488 3.474 15.464 6.565 27.57 17.122 15.102 13.171 24.147 16.88 31.53 12.93zm-128.612 2.66c5.714-6.315.824-14.588-20.988-35.508-21.25-20.382-43.337-36.25-54.722-39.316-4.19-1.128-5.76-.975-8.518.832-7.021 4.6-2.07 17.423 15.145 39.228 16.415 20.791 42.54 37.051 59.917 37.292 5.142.07 7.37-.544 9.166-2.529zm-355.937 5.21c7.37-4.437 10.315-8.69 11.007-15.902 1.546-16.08-14.146-39.76-50.97-76.916-15.822-15.966-19.525-19.044-23.875-19.843-7.397-1.36-12.686 1.67-21.548 12.347-17.027 20.514-16.914 28.13.745 50.392 11.787 14.86 21.678 25.115 32.824 34.03 22.564 18.046 39.57 23.262 51.817 15.891zm-300.969 12.776c7-5.891 10.194-15.465 10.24-30.698.034-11.5-.41-14.245-3.224-19.965-1.795-3.648-5.863-9.231-9.04-12.408-5.22-5.22-6.313-5.737-11.36-5.368-4.596.336-6.1 1.178-8.51 4.766-6.16 9.171-7.317 34.315-2.348 51.048 4.246 14.296 15.37 20.09 24.242 12.625zm824.638-1.843c18.72-8.032 25.621-12.325 28.375-17.65 3.067-5.93.707-10.756-7.826-16.007-8.623-5.305-15.88-7.864-22.306-7.864-9.222 0-14.828 7.242-22.113 28.567-7.278 21.3-2.114 24.104 23.87 12.954zm-665.602-243.065c13.42-7.543 15.42-32.926 4.222-53.557-5.62-10.35-18.32-22.307-32.669-30.751-15.41-9.07-19.6-10.19-23.504-6.287-2.165 2.165-2.805 4.463-2.805 10.073 0 14.765-5.802 31.098-14.61 41.13-10.017 11.41-8.632 22.34 3.991 31.484 15.252 11.048 51.9 15.48 65.375 7.908zm797.35 9.087c13.4-5.513 22.56-14.752 22.56-22.754 0-8.425-8.68-19.047-18.11-22.16-11.256-3.714-21.26 1.558-27.445 14.465-3.555 7.42-4.282 10.538-4.356 18.684-.079 8.723.251 10.054 3.059 12.333 4.392 3.565 14.838 3.32 24.292-.568zm-525.035 27.034c2.789-.775 6.989-3.124 9.333-5.22 3.952-3.534 4.26-4.426 4.234-12.251-.024-7.338-.752-9.78-5.576-18.707-10.417-19.28-29.367-42.657-44.396-54.769-16.051-12.936-38.471-22.297-53.401-22.297-8.186 0-17.65 2.96-23.338 7.298-13.048 9.953-14.784 33.944-3.996 55.234 7.16 14.127 24.576 29.27 43.906 38.173 24.178 11.136 57.648 16.867 73.234 12.539zm-380.951 5.928c11.48-8.763 19.418-10.55 26.404-5.945 3.803 2.507 7.206 2.334 9.122-.463 4.55-6.646-7.01-29.264-17.813-34.85-4.723-2.442-14.91-2.464-19.566-.04-9.474 4.929-15.212 16.548-15.305 30.989-.102 15.799 5.532 19.184 17.158 10.31zm927.273 2.097c7.01-7.504 12.91-28.22 9.282-32.592-4.087-4.925-10.5-.675-17.973 11.911-5.234 8.817-6.185 16.702-2.627 21.782 2.866 4.092 6.827 3.707 11.318-1.1zm-447.489 1.969c4.584-4.584 1.645-11.24-18.504-41.905-15.802-24.048-30.07-46.797-33.278-53.057-4.344-8.475-20.63-16.79-47.656-24.33-14.593-4.072-19.8-4.441-19.8-1.406 0 .71 8.25 11.684 18.334 24.388 25.865 32.585 43.17 60.113 45.095 71.739 1.109 6.695 3.124 11.483 5.883 13.98 1.321 1.196 8.047 3.327 14.946 4.737 6.9 1.41 16.114 3.714 20.477 5.123 10.001 3.228 11.91 3.324 14.503.731zm397.218 15.865c13.455-9.457 17.699-23.892 9.544-32.468-6.308-6.634-10.934-8.477-21.38-8.521-27.435-.116-42.481 24.045-24.106 38.708 7.004 5.588 12.363 7.205 21.979 6.632 6.697-.399 9.649-1.319 13.963-4.35zm-464.631-169.396c5.475-3.425 3.3-9.992-11.531-34.833-14.457-24.213-21.657-39.808-25.035-54.225-1.814-7.743-2.024-13.406-1.247-33.538 1.173-30.383-.436-36.444-9.675-36.444-5.763 0-12.337 11.398-12.337 21.391 0 7.097-4.608 21.104-11.806 35.888-6.022 12.368-6.19 13.053-6.076 24.72.342 34.87 26.626 74.167 53.007 79.25 7.425 1.43 20.794.235 24.7-2.209zm570.916 12.92c5.13-2.745 7.172-9.149 7.217-22.627.037-11.099-.37-13.395-3.291-18.549-4.878-8.607-8.882-11.081-17.759-10.975-16.597.198-28.908 10.965-28.908 25.284 0 6.931 4.336 13.106 13.365 19.033 12.775 8.386 23.167 11.157 29.376 7.834zm-667.957-3.759c2.677-3.017 5.658-8.318 6.653-11.833 4.191-14.803-.355-50.375-7.527-58.899-6.331-7.524-27.471-13.47-47.896-13.47-19.095 0-24.376 4.19-20.71 16.427 2.928 9.773 23.987 49.653 30.489 57.737 3.466 4.31 9.581 9.829 13.588 12.264 6.302 3.83 8.182 4.347 13.92 3.833 5.745-.514 7.282-1.325 11.483-6.059zm628.599 45.644c5.324-3.489 10.395-13.254 10.395-20.02 0-10.39-10.451-17.495-19.452-13.224-11.46 5.438-14.767 26.663-5.315 34.098 4.028 3.168 8.653 2.893 14.372-.854zm-730.261 18.638c12.08-3.902 22.494-14.97 27.426-29.15 3.195-9.185 4.215-31.19 2.147-46.322-3.733-27.32-17.271-70.613-24.927-79.711-4.182-4.97-6.462-4.97-13.955-.01-12.292 8.141-46.823 46.313-53.195 58.802-5.967 11.697-.154 16.797 12.049 10.571 11.412-5.822 16.487-1.308 16.492 14.667 0 11.773-3.146 20.252-11.693 31.47-12.608 16.549-14.9 23.266-10.704 31.38 5.312 10.272 36.177 14.818 56.36 8.3zm130.444-293.261c3.185-3.185 3.394-4.111 2.782-12.333-1.41-18.938-17.564-46.486-25.479-43.45-5.817 2.233-6.275 27.796-.763 42.56 5.67 15.186 15.792 20.891 23.46 13.223z" fill="teal"/></svg>